<svg width="136" height="56" viewBox="0 0 136 56" fill="none" xmlns="http://www.w3.org/2000/svg">
<path d="M2.84678 47.3811H1.3623V55.3962H7.02161V54.1363H2.84678V47.3811Z" fill="#9E005D"/>
<path d="M12.4288 47.3811L8.83398 55.3962H10.3642L11.1504 53.5427H15.142L15.9396 55.3962H17.4928L13.8865 47.3811H12.4288ZM11.6541 52.3709L13.15 48.8669L14.6536 52.3709H11.6541Z" fill="#9E005D"/>
<path d="M25.881 51.2259C26.2015 51.0574 26.4534 50.82 26.6328 50.5174C26.8159 50.2111 26.9075 49.8626 26.9075 49.4643C26.9075 48.8172 26.6518 48.3078 26.1443 47.9364C25.6368 47.5649 24.9079 47.3811 23.9653 47.3811H20.2217V55.3962H24.1904C25.2093 55.3962 25.984 55.2085 26.5183 54.8294C27.0487 54.4503 27.3158 53.9142 27.3158 53.221C27.3158 52.7194 27.1861 52.2943 26.9304 51.9573C26.6709 51.6165 26.3198 51.3714 25.881 51.2259ZM21.7062 48.5491H23.805C24.3202 48.5491 24.7209 48.641 24.9956 48.8286C25.2742 49.0163 25.4116 49.292 25.4116 49.6596C25.4116 50.0196 25.2742 50.2915 24.9956 50.4792C24.7171 50.6668 24.3202 50.7587 23.805 50.7587H21.7062V48.5491ZM24.1027 54.2282H21.7062V51.9152H24.1027C25.2513 51.9152 25.8237 52.302 25.8237 53.0717C25.8237 53.8414 25.2475 54.2282 24.1027 54.2282Z" fill="#9E005D"/>
<path d="M32.0969 51.9382H35.955V50.7127H32.0969V48.6295H36.4434V47.3811H30.6162V55.3962H36.6037V54.1478H32.0969V51.9382Z" fill="#9E005D"/>
<path d="M41.4542 47.3811H39.9697V55.3962H45.629V54.1363H41.4542V47.3811Z" fill="#9E005D"/>
<path d="M57.6994 51.2105C57.3178 51.0611 56.8331 50.9194 56.2378 50.7816C55.8066 50.6743 55.4632 50.5786 55.2113 50.4944C54.9594 50.4101 54.7534 50.2952 54.5893 50.1497C54.4252 50.0042 54.345 49.8165 54.345 49.5868C54.345 49.2574 54.4862 48.997 54.7724 48.7979C55.0586 48.5988 55.4937 48.4992 56.0776 48.4992C56.4363 48.4992 56.8026 48.5528 57.1842 48.66C57.5658 48.7673 57.9284 48.9243 58.2795 49.1311L58.7488 47.9746C58.4054 47.7448 57.9971 47.5686 57.5277 47.4499C57.0545 47.3274 56.5775 47.2661 56.089 47.2661C55.3907 47.2661 54.7992 47.3733 54.3145 47.5878C53.8299 47.8022 53.4711 48.0894 53.2307 48.4532C52.9903 48.817 52.872 49.2191 52.872 49.6595C52.872 50.1842 53.0056 50.6054 53.2765 50.9118C53.5475 51.222 53.868 51.4479 54.2458 51.5934C54.6236 51.7389 55.1159 51.8845 55.7227 52.03C56.1577 52.1372 56.4973 52.2329 56.7492 52.3172C57.0011 52.4014 57.2071 52.5163 57.3712 52.6657C57.5353 52.815 57.6155 53.0027 57.6155 53.2324C57.6155 53.5464 57.4704 53.7992 57.1766 53.9868C56.8828 54.1783 56.4401 54.274 55.8486 54.274C55.3678 54.274 54.8907 54.1936 54.4175 54.029C53.9405 53.8643 53.5398 53.6537 53.2155 53.3933L52.7041 54.5498C53.0399 54.8408 53.494 55.0706 54.0665 55.2467C54.6389 55.4229 55.2342 55.511 55.8524 55.511C56.5508 55.511 57.1461 55.4037 57.6307 55.1893C58.1192 54.9748 58.4817 54.6876 58.7221 54.3315C58.9625 53.9715 59.0808 53.5733 59.0808 53.129C59.0808 52.6121 58.9473 52.1985 58.6763 51.8921C58.4054 51.5858 58.081 51.3598 57.6994 51.2105Z" fill="#9E005D"/>
<path d="M134.178 51.8921C133.907 51.5858 133.583 51.3598 133.201 51.2105C132.82 51.0611 132.335 50.9194 131.74 50.7816C131.309 50.6743 130.965 50.5786 130.713 50.4944C130.461 50.4101 130.255 50.2952 130.091 50.1497C129.927 50.0042 129.847 49.8165 129.847 49.5868C129.847 49.2574 129.988 48.997 130.274 48.7979C130.561 48.5988 130.996 48.4992 131.58 48.4992C131.938 48.4992 132.305 48.5528 132.686 48.66C133.068 48.7673 133.43 48.9243 133.781 49.1311L134.251 47.9746C133.907 47.7448 133.499 47.5686 133.03 47.4499C132.556 47.3274 132.079 47.2661 131.591 47.2661C130.893 47.2661 130.301 47.3733 129.816 47.5878C129.332 47.8022 128.973 48.0894 128.733 48.4532C128.492 48.817 128.374 49.2191 128.374 49.6595C128.374 50.1842 128.508 50.6054 128.778 50.9118C129.049 51.222 129.37 51.4479 129.748 51.5934C130.126 51.7389 130.618 51.8845 131.225 52.03C131.66 52.1372 131.999 52.2329 132.251 52.3172C132.503 52.4014 132.709 52.5163 132.873 52.6657C133.037 52.815 133.117 53.0027 133.117 53.2324C133.117 53.5464 132.972 53.7992 132.679 53.9868C132.385 54.1783 131.942 54.274 131.351 54.274C130.87 54.274 130.393 54.1936 129.92 54.029C129.442 53.8643 129.042 53.6537 128.717 53.3933L128.206 54.5498C128.542 54.8408 128.996 55.0706 129.568 55.2467C130.141 55.4229 130.736 55.511 131.354 55.511C132.053 55.511 132.648 55.4037 133.133 55.1893C133.621 54.9748 133.984 54.6876 134.224 54.3315C134.464 53.9715 134.583 53.5733 134.583 53.129C134.583 52.6082 134.449 52.1985 134.178 51.8921Z" fill="#9E005D"/>
<path d="M68.1941 47.7984C67.5415 47.4423 66.805 47.2661 65.9922 47.2661C65.1793 47.2661 64.4428 47.4461 63.7903 47.7984C63.1377 48.1546 62.6225 48.6447 62.2486 49.2766C61.8746 49.9084 61.6914 50.6092 61.6914 51.3904C61.6914 52.1678 61.8784 52.8725 62.2486 53.5043C62.6225 54.1324 63.1339 54.6264 63.7903 54.9825C64.4428 55.3386 65.1793 55.5148 65.9922 55.5148C66.805 55.5148 67.5415 55.3386 68.1941 54.9825C68.8466 54.6264 69.3618 54.1362 69.7358 53.512C70.1098 52.8878 70.2968 52.1793 70.2968 51.3943C70.2968 50.6092 70.1098 49.9008 69.7358 49.2766C69.3618 48.6447 68.8505 48.1546 68.1941 47.7984ZM68.4345 52.8342C68.1903 53.2669 67.8544 53.6001 67.4309 53.8413C67.0034 54.0826 66.5264 54.2013 65.9922 54.2013C65.4579 54.2013 64.9809 54.0826 64.5535 53.8413C64.1261 53.6001 63.7941 53.2669 63.5499 52.8342C63.3056 52.4014 63.1835 51.9189 63.1835 51.3866C63.1835 50.8543 63.3056 50.368 63.5499 49.9391C63.7941 49.5064 64.1261 49.1732 64.5535 48.9319C64.9809 48.6907 65.4579 48.572 65.9922 48.572C66.5226 48.572 67.0034 48.6907 67.4309 48.9319C67.8583 49.1732 68.1903 49.5064 68.4345 49.9391C68.6787 50.3718 68.8008 50.8543 68.8008 51.3866C68.8008 51.9189 68.6787 52.4053 68.4345 52.8342Z" fill="#9E005D"/>
<path d="M75.0627 47.3811H73.582V55.3962H79.2413V54.1363H75.0627V47.3811Z" fill="#9E005D"/>
<path d="M87.4767 51.8463C87.4767 53.4202 86.8013 54.2052 85.458 54.2052C84.1033 54.2052 83.4278 53.4202 83.4278 51.8463V47.3811H81.9434V51.9037C81.9434 53.064 82.2525 53.9563 82.8669 54.5767C83.4812 55.1971 84.3437 55.5111 85.4466 55.5111C86.5494 55.5111 87.408 55.2009 88.0186 54.5767C88.633 53.9525 88.9383 53.064 88.9383 51.9037V47.3811H87.4767V51.8463Z" fill="#9E005D"/>
<path d="M91.5488 48.641H94.1972V55.3962H95.6817V48.641H98.3263V47.3811H91.5488V48.641Z" fill="#9E005D"/>
<path d="M102.642 47.3811H101.157V55.3962H102.642V47.3811Z" fill="#9E005D"/>
<path d="M112.442 47.7984C111.79 47.4423 111.053 47.2661 110.24 47.2661C109.427 47.2661 108.691 47.4461 108.038 47.7984C107.386 48.1546 106.871 48.6447 106.497 49.2766C106.123 49.9084 105.939 50.6092 105.939 51.3904C105.939 52.1678 106.126 52.8725 106.497 53.5043C106.871 54.1324 107.382 54.6264 108.038 54.9825C108.691 55.3386 109.427 55.5148 110.24 55.5148C111.053 55.5148 111.79 55.3386 112.442 54.9825C113.095 54.6264 113.61 54.1362 113.984 53.512C114.358 52.8878 114.545 52.1793 114.545 51.3943C114.545 50.6092 114.358 49.9008 113.984 49.2766C113.606 48.6447 113.095 48.1546 112.442 47.7984ZM112.679 52.8342C112.434 53.2669 112.099 53.6001 111.675 53.8413C111.248 54.0826 110.771 54.2013 110.236 54.2013C109.706 54.2013 109.225 54.0826 108.798 53.8413C108.37 53.6001 108.038 53.2669 107.794 52.8342C107.55 52.4014 107.428 51.9189 107.428 51.3866C107.428 50.8543 107.55 50.368 107.794 49.9391C108.038 49.5064 108.37 49.1732 108.798 48.9319C109.225 48.6907 109.702 48.572 110.236 48.572C110.771 48.572 111.248 48.6907 111.675 48.9319C112.102 49.1732 112.434 49.5064 112.679 49.9391C112.923 50.3718 113.045 50.8543 113.045 51.3866C113.045 51.9189 112.923 52.4053 112.679 52.8342Z" fill="#9E005D"/>
<path d="M123.451 52.8075L119.044 47.3811H117.826V55.3962H119.295V49.9698L123.699 55.3962H124.92V47.3811H123.451V52.8075Z" fill="#9E005D"/>
<path d="M25.1638 1.42749H33.3646V25.8097C33.3646 34.8664 25.9804 42.2765 16.9591 42.2765C7.934 42.2765 0.549805 34.8664 0.549805 25.8097V1.42749H8.75065V25.8097C8.75065 30.3247 12.4599 34.0469 16.9591 34.0469C21.4583 34.0469 25.1676 30.3247 25.1676 25.8097V1.42749H25.1638Z" fill="#004282"/>
<path d="M75.8155 1.42749V30.7268V41.3995L40.4668 12.1002V1.42749L67.6109 23.9295V1.42749H75.8155Z" fill="#004282"/>
<path d="M40.4668 22.0107V41.3994H48.6676V28.8081L40.4668 22.0107Z" fill="#004282"/>
<path d="M89.5299 1.42749H81.3252V41.3995H89.5299V1.42749Z" fill="#004282"/>
<path fill-rule="evenodd" clip-rule="evenodd" d="M111.137 23.7266H125.76C126.005 23.7266 126.203 23.9257 126.203 24.1708V28.7087C126.203 28.9538 126.005 29.1529 125.76 29.1529H111.137C110.893 29.1529 110.694 28.9538 110.694 28.7087V24.1708C110.694 23.9257 110.893 23.7266 111.137 23.7266Z" fill="#9E005D"/>
<path fill-rule="evenodd" clip-rule="evenodd" d="M111.694 27.8547H124.871C125.032 27.8547 125.161 27.9849 125.161 28.1458C125.161 28.3066 125.032 28.4368 124.871 28.4368H111.694C111.534 28.4368 111.404 28.3066 111.404 28.1458C111.408 27.9849 111.538 27.8547 111.694 27.8547Z" fill="#004282"/>
<path d="M121.987 27.062C122.252 27.062 122.468 26.8459 122.468 26.5794C122.468 26.313 122.252 26.0969 121.987 26.0969C121.721 26.0969 121.506 26.313 121.506 26.5794C121.506 26.8459 121.721 27.062 121.987 27.062Z" fill="white"/>
<path d="M123.333 27.062C123.599 27.062 123.814 26.8459 123.814 26.5794C123.814 26.313 123.599 26.0969 123.333 26.0969C123.068 26.0969 122.853 26.313 122.853 26.5794C122.853 26.8459 123.068 27.062 123.333 27.062Z" fill="white"/>
<path d="M124.681 27.062C124.947 27.062 125.162 26.8459 125.162 26.5794C125.162 26.313 124.947 26.0969 124.681 26.0969C124.415 26.0969 124.2 26.313 124.2 26.5794C124.2 26.8459 124.415 27.062 124.681 27.062Z" fill="white"/>
<path fill-rule="evenodd" clip-rule="evenodd" d="M104.39 28.7392C102.906 26.6637 102.028 24.1209 102.028 21.3713C102.028 14.394 107.66 8.74174 114.613 8.74174C121.566 8.74174 127.199 14.394 127.199 21.3713C127.199 23.8413 126.493 26.1467 125.272 28.0959C125.577 28.3601 125.844 28.6626 126.05 28.9805C126.34 29.4324 126.6 29.9187 126.852 30.3897C127.195 31.0293 127.535 31.6688 127.882 32.3045C128.493 33.4188 129.126 34.5256 129.813 35.5978C133.278 31.8717 135.396 26.8705 135.396 21.3713C135.396 9.85229 126.089 0.512207 114.61 0.512207C103.131 0.512207 93.8232 9.85229 93.8232 21.3713C93.8232 25.5914 95.0711 29.5204 97.2196 32.8061C100.933 38.4852 107.332 42.2305 114.606 42.2305V34.0009C110.404 34.0009 106.672 31.9254 104.39 28.7392Z" fill="#004282"/>
<path fill-rule="evenodd" clip-rule="evenodd" d="M112.568 27.8546H122.521C123.578 27.7933 124.795 28.5363 125.36 29.4247C126.814 31.7032 130.42 40.2123 135.362 42.2458H126.65C124.23 42.2458 122.681 40.9169 121.235 38.5388C118.915 34.7247 115.816 28.0652 112.568 27.8546Z" fill="#BCBEC0"/>
<path fill-rule="evenodd" clip-rule="evenodd" d="M125.845 40.1089C125.978 40.1089 126.123 40.1089 126.257 40.1089C125.707 39.5881 125.219 39.0711 124.811 38.5388C124.418 38.0257 124.078 37.4934 123.746 36.9688C123.612 36.9688 123.471 36.9688 123.338 36.9688C123.666 37.4896 124.002 38.0257 124.391 38.5388C124.795 39.075 125.288 39.5881 125.845 40.1089ZM126.948 40.1089C126.406 39.5881 125.921 39.0711 125.509 38.5388C125.112 38.0257 124.765 37.4934 124.429 36.9688C124.498 36.9688 124.57 36.9688 124.639 36.9688C124.979 37.4896 125.326 38.0219 125.723 38.5388C126.135 39.0711 126.62 39.5843 127.158 40.1089C127.089 40.1089 127.016 40.1089 126.948 40.1089ZM127.402 40.1089C126.864 39.5881 126.383 39.0711 125.967 38.5388C125.566 38.0257 125.215 37.4934 124.876 36.9688C125.074 36.9688 125.276 36.9688 125.475 36.9688C125.822 37.4896 126.181 38.0219 126.581 38.5388C126.997 39.0711 127.478 39.5843 128.009 40.1089C127.806 40.1089 127.604 40.1089 127.402 40.1089ZM128.295 40.1089C127.768 39.5881 127.287 39.0711 126.871 38.5388C126.467 38.0219 126.108 37.4934 125.757 36.9688C125.868 36.9688 125.982 36.9688 126.093 36.9688C126.444 37.4896 126.81 38.0219 127.215 38.5388C127.635 39.0711 128.115 39.5843 128.634 40.1089C128.52 40.1089 128.409 40.1089 128.295 40.1089ZM128.947 40.1089C129.062 40.1089 129.184 40.1089 129.295 40.1089C128.783 39.5881 128.302 39.0711 127.883 38.5388C127.474 38.0219 127.1 37.4934 126.745 36.9688C126.635 36.9688 126.513 36.9688 126.402 36.9688C126.757 37.4896 127.123 38.0219 127.532 38.5388C127.951 39.0711 128.432 39.5881 128.947 40.1089ZM129.562 40.1089C129.768 40.1089 129.966 40.1089 130.176 40.1089C129.672 39.5881 129.199 39.0711 128.772 38.5388C128.356 38.0219 127.978 37.4934 127.612 36.9688C127.409 36.9688 127.211 36.9688 127.009 36.9688C127.368 37.4896 127.741 38.0219 128.154 38.5388C128.573 39.0711 129.05 39.5881 129.562 40.1089ZM130.367 40.1089C130.436 40.1089 130.504 40.1089 130.573 40.1089C130.073 39.5843 129.6 39.0711 129.173 38.5388C128.757 38.0219 128.371 37.4934 128.001 36.9688C127.932 36.9688 127.867 36.9688 127.799 36.9688C128.165 37.4934 128.547 38.0219 128.963 38.5388C129.394 39.0711 129.863 39.5881 130.367 40.1089ZM130.771 40.1089C130.932 40.1089 131.096 40.1089 131.256 40.1089C130.764 39.5843 130.294 39.0673 129.863 38.5388C129.443 38.0219 129.054 37.4934 128.676 36.9688C128.516 36.9688 128.356 36.9688 128.196 36.9688C128.57 37.4934 128.951 38.0219 129.371 38.5388C129.806 39.0711 130.275 39.5881 130.771 40.1089ZM124.444 40.1089C123.872 39.5843 123.376 39.075 122.979 38.5388C122.597 38.0257 122.277 37.4934 121.96 36.9688C122.048 36.9688 122.132 36.9688 122.22 36.9688C122.536 37.4934 122.861 38.0257 123.246 38.5388C123.647 39.0711 124.139 39.5843 124.711 40.1089C124.62 40.1089 124.532 40.1089 124.444 40.1089ZM126.513 40.1089C125.967 39.5881 125.479 39.0711 125.07 38.5388C124.677 38.0257 124.334 37.4934 124.002 36.9688C124.07 36.9688 124.143 36.9688 124.212 36.9688C124.547 37.4896 124.891 38.0219 125.288 38.5388C125.696 39.0711 126.185 39.5843 126.726 40.1089C126.654 40.1089 126.581 40.1089 126.513 40.1089ZM123.99 40.1089C123.41 39.5843 122.914 39.075 122.517 38.5388C122.139 38.0257 121.819 37.4934 121.51 36.9688C121.594 36.9688 121.681 36.9688 121.769 36.9688C122.082 37.4934 122.403 38.0257 122.784 38.5388C123.181 39.075 123.677 39.5843 124.254 40.1089C124.166 40.1089 124.078 40.1089 123.99 40.1089ZM124.986 40.1089C124.421 39.5881 123.925 39.075 123.525 38.5388C123.139 38.0257 122.811 37.4934 122.491 36.9688C122.697 36.9688 122.899 36.9688 123.101 36.9688C123.425 37.4896 123.761 38.0257 124.147 38.5388C124.551 39.0711 125.043 39.5843 125.601 40.1089C125.402 40.1089 125.192 40.1089 124.986 40.1089Z" fill="#9E005D"/>
<path fill-rule="evenodd" clip-rule="evenodd" d="M119.533 33.0435C120.605 33.0435 121.677 33.0435 122.75 33.0435C123.822 33.0435 124.894 33.0435 125.967 33.0435C126.093 33.0435 126.245 33.1315 126.31 33.2349C126.383 33.3575 126.455 33.4762 126.528 33.5987C126.589 33.7021 126.539 33.7864 126.413 33.7864C125.341 33.7864 124.268 33.7864 123.2 33.7864C122.131 33.7864 121.059 33.7864 119.987 33.7864C119.861 33.7864 119.712 33.7021 119.651 33.5987C119.578 33.4762 119.502 33.3575 119.426 33.2349C119.361 33.1315 119.407 33.0435 119.533 33.0435Z" fill="#9E005D"/>
<path fill-rule="evenodd" clip-rule="evenodd" d="M120.242 34.4336C121.353 34.4336 122.467 34.4336 123.577 34.4336C124.688 34.4336 125.802 34.4336 126.913 34.4336C126.974 34.4336 127.054 34.4757 127.084 34.5293C127.123 34.5906 127.161 34.6519 127.195 34.7093C127.226 34.7629 127.203 34.8051 127.138 34.8051C126.02 34.8051 124.905 34.8051 123.787 34.8051C122.673 34.8051 121.555 34.8051 120.441 34.8051C120.376 34.8051 120.303 34.7629 120.276 34.7093C120.242 34.648 120.212 34.5868 120.177 34.5293C120.151 34.4795 120.177 34.4336 120.242 34.4336Z" fill="#9E005D"/>
<path fill-rule="evenodd" clip-rule="evenodd" d="M120.631 35.1572C121.753 35.1572 122.875 35.1572 123.993 35.1572C125.115 35.1572 126.237 35.1572 127.359 35.1572C127.424 35.1572 127.5 35.1994 127.535 35.253C127.573 35.3142 127.611 35.3755 127.649 35.4329C127.684 35.4866 127.657 35.5287 127.596 35.5287C126.47 35.5287 125.341 35.5287 124.215 35.5287C123.089 35.5287 121.959 35.5287 120.834 35.5287C120.773 35.5287 120.696 35.4866 120.67 35.4329C120.639 35.3717 120.605 35.3104 120.574 35.253C120.544 35.1994 120.57 35.1572 120.631 35.1572Z" fill="#9E005D"/>
<path fill-rule="evenodd" clip-rule="evenodd" d="M121.052 35.9385C121.842 35.9385 122.632 35.9385 123.422 35.9385C124.211 35.9385 125.001 35.9385 125.795 35.9385C125.86 35.9385 125.936 35.9806 125.971 36.0342C126.009 36.0955 126.047 36.1568 126.085 36.2142C126.12 36.2678 126.093 36.3099 126.028 36.3099C125.23 36.3099 124.437 36.3099 123.639 36.3099C122.841 36.3099 122.048 36.3099 121.254 36.3099C121.189 36.3099 121.117 36.2678 121.086 36.2142C121.052 36.1529 121.021 36.0917 120.987 36.0342C120.96 35.9806 120.987 35.9385 121.052 35.9385Z" fill="#9E005D"/>
</svg>
