<svg width="32" height="32" viewBox="0 0 32 32" fill="none" xmlns="http://www.w3.org/2000/svg">
<path d="M23.058 4H8.94196C6.21259 4 4 6.18463 4 8.87951V22.8172C4 25.5121 6.21259 27.6968 8.94196 27.6968H23.058C25.7874 27.6968 28 25.5121 28 22.8172V8.87951C28 6.18463 25.7874 4 23.058 4Z" fill="#231F20"/>
<path d="M17.1751 17.2557V24.4868H13.8073V17.2557H11.0128V14.3246H13.8073V13.2539C13.8073 9.29181 15.4805 7.21045 19.0275 7.21045C20.1139 7.21045 20.3863 7.38166 20.9835 7.52285V10.4238C20.3144 10.3063 20.1275 10.2469 19.4345 10.2469C18.6102 10.2469 18.1747 10.4743 17.7742 10.9279C17.3737 11.3821 17.1738 12.1692 17.1738 13.2891V14.3246H20.986L19.9618 17.2557H17.1738H17.1751Z" fill="white"/>
</svg>
