<svg width="80" height="80" viewBox="0 0 80 80" fill="none" xmlns="http://www.w3.org/2000/svg">
<path d="M40 71C57.1208 71 71 57.1208 71 40C71 22.8792 57.1208 9 40 9C22.8792 9 9 22.8792 9 40C9 57.1208 22.8792 71 40 71Z" fill="#9E005D"/>
<path d="M40 68.1111C55.5254 68.1111 68.1111 55.5254 68.1111 40C68.1111 24.4747 55.5254 11.8889 40 11.8889C24.4747 11.8889 11.8889 24.4747 11.8889 40C11.8889 55.5254 24.4747 68.1111 40 68.1111Z" fill="#004181"/>
<path d="M23 33.3333H31.1111V35H24.8889V40H30.7778V41.6666H25V48.5555H23V33.3333Z" fill="white"/>
<path d="M34 33.5556C35.2222 33.3333 36.5556 33.2222 38.1111 33.2222C40.8889 33.2222 42.8889 33.8889 44.2222 35.1111C45.5556 36.3333 46.3334 38.1111 46.3334 40.5556C46.3334 43 45.5556 45 44.1111 46.4445C42.6667 47.8889 40.3334 48.6667 37.4445 48.6667C36 48.6667 34.8889 48.5556 33.8889 48.4445V33.5556H34ZM36 46.8889C36.4445 47 37.2223 47 38 47C42.2223 47 44.4445 44.6667 44.4445 40.5556C44.4445 37 42.4445 34.6667 38.3334 34.6667C37.3334 34.6667 36.5556 34.7778 36 34.8889V46.8889Z" fill="white"/>
<path d="M51.1111 43.6666L49.5555 48.4444H47.5555L52.6667 33.3333H55L60.2222 48.4444H58.1111L56.4444 43.6666H51.1111ZM56.1111 42.2222L54.6667 37.8889C54.3333 36.8889 54.1111 36 53.8889 35.1111C53.6667 36 53.4444 36.8889 53.1111 37.8889L51.6667 42.2222H56.1111Z" fill="white"/>
</svg>
