<svg width="80" height="80" viewBox="0 0 80 80" fill="none" xmlns="http://www.w3.org/2000/svg">
<path d="M71 41.4214C71 47.9538 65.9575 53.3401 59.5397 53.7985C59.5397 53.7985 54.6118 53.7985 48.1941 53.7985V42.5675H52.6636C53.3512 42.5675 53.9242 42.2237 54.1534 41.7652C54.3826 41.1922 54.268 40.6192 53.8096 40.1608L43.61 29.0444C43.2662 28.7006 42.8078 28.4713 42.2347 28.4713C41.7763 28.4713 41.2033 28.7006 40.8595 29.0444L31.2329 38.5564C30.7745 39.0148 30.7745 39.7024 31.2329 40.1608C31.6913 40.6192 32.3789 40.6192 32.8373 40.1608L42.1201 30.878L50.9445 40.39H47.0481C46.475 40.39 45.902 40.8484 45.902 41.536V53.7985C44.2976 53.7985 42.6932 53.7985 41.0887 53.7985V46.0055C41.0887 44.4011 39.7135 43.0259 38.1091 43.0259H29.0555C27.3364 43.0259 26.0758 44.4011 26.0758 46.0055V53.7985C22.7523 53.7985 20.4603 53.7985 20.4603 53.7985C14.0425 53.3401 9 47.9538 9 41.4214C9 35.3475 13.3549 30.1904 19.1996 29.159C19.1996 28.8152 19.1996 28.4713 19.1996 28.0129C19.1996 19.7616 25.8466 13 34.098 13C39.8281 13 44.756 16.2089 47.2773 20.9076C48.6525 19.8762 50.4861 19.3031 52.3198 19.3031C56.9039 19.3031 60.6858 22.8558 60.6858 27.3253C60.6858 27.8983 60.5712 28.586 60.4566 29.159C66.5305 30.0758 71 35.1183 71 41.4214Z" fill="#004181"/>
<path d="M44.6414 56.0906H39.0259V46.0055C39.0259 45.5471 38.6821 45.2033 38.2237 45.2033H29.1701C28.7117 45.2033 28.3679 45.5471 28.3679 46.0055V56.0906H22.9815C22.5231 56.0906 22.4085 56.3198 22.7523 56.6636L33.7542 67.207C33.8688 67.3216 34.098 67.4362 34.3272 67.4362C34.5564 67.4362 34.7856 67.3216 34.9002 67.207L44.9852 56.6636C45.2144 56.3198 45.0998 56.0906 44.6414 56.0906Z" fill="#9E005D"/>
</svg>
