<svg width="80" height="80" viewBox="0 0 80 80" fill="none" xmlns="http://www.w3.org/2000/svg">
<g clip-path="url(#clip0_331_526)">
<path d="M70.0721 69.1441H26.9093L30.4223 30.8598H43.4135C45.3887 30.8598 47.0988 29.4679 47.4037 27.6252C47.5893 26.4852 47.2711 25.3319 46.5288 24.4702C45.7864 23.5953 44.7126 23.1048 43.5726 23.1048H14.8593C11.6248 23.1048 9 25.7296 9 28.9641V42.2602C9 44.9115 10.9487 47.1121 13.4806 47.523L15.4691 69.1441H9.92795C9.41095 69.1441 9 69.5551 9 70.0721C9 70.5891 9.41095 71 9.92795 71H70.0721C70.589 71 71 70.5891 71 70.0721C71 69.5551 70.589 69.1441 70.0721 69.1441Z" fill="#1A4580"/>
<path d="M21.1826 20.3474C24.3111 20.3474 26.8563 17.8022 26.8563 14.6737C26.8563 11.5452 24.3111 9 21.1826 9C18.0541 9 15.5089 11.5452 15.5089 14.6737C15.5089 17.8022 18.0541 20.3474 21.1826 20.3474Z" fill="#1A4580"/>
<path d="M53.1172 29.0038V46.3034H54.9863H69.1441H71V29.0038H53.1172Z" fill="#9D2061"/>
<path d="M53.1172 49.0475V66.347H54.0451H70.072H71V49.0475H53.1172Z" fill="#9D2061"/>
<path d="M33.3784 66.347H34.3064H50.3201V50.9166H50.3333V49.0475H33.3784V66.347Z" fill="#9D2061"/>
</g>
<defs>
<clipPath id="clip0_331_526">
<rect width="62" height="62" fill="white" transform="translate(9 9)"/>
</clipPath>
</defs>
</svg>
