<svg width="80" height="80" viewBox="0 0 80 80" fill="none" xmlns="http://www.w3.org/2000/svg">
<path d="M20.1126 63.2938C26.6175 60.6512 39.2885 54.4173 52.9082 39.849C54.8732 37.7485 57.177 35.1059 59.7519 31.8534C60.7005 32.6665 61.7847 33.4796 62.8688 34.2927C63.6142 34.8348 64.2918 35.3091 65.0372 35.8512C66.2568 36.6643 67.8153 36.5966 68.8994 35.5802C69.5093 35.0381 69.8481 34.225 69.9158 33.4119C70.0514 30.0917 70.1191 26.7037 70.1191 23.1802V22.7059C70.1191 18.9113 70.0514 15.1846 69.9158 11.5933C69.8481 9.56051 68.0863 7.93428 66.0535 8.00204C65.8503 8.00204 65.5792 8.0698 65.3759 8.0698C57.6514 9.83155 50.0623 11.6611 42.541 13.6938C41.8634 13.8971 41.3213 14.2359 40.9148 14.778C40.576 15.3201 40.3727 15.9299 40.3727 16.5397C40.3727 17.5561 40.9148 18.5048 41.7279 19.0468C42.3377 19.4534 42.9475 19.7922 43.6251 20.1988C44.8448 20.9441 45.9967 21.554 47.1486 22.1638C45.2514 25.8228 43.0153 29.3463 40.576 32.6665C35.0197 40.1878 28.6503 45.8796 20.5191 53.1977C16.9956 56.3824 14.2175 58.7539 12.2525 60.4479C11.4393 61.1255 10.694 61.8709 10.0164 62.684C9.74536 62.955 9.54208 63.2261 9.3388 63.5649C9.13552 63.9037 9 64.2425 9 64.5813C9 65.0556 9.20328 65.4621 9.60984 65.7332C9.81311 65.8687 10.0164 66.0042 10.2874 66.0042C10.4907 66.072 10.694 66.072 10.965 66.072C11.7104 66.072 12.5235 65.9365 13.2689 65.7332C14.624 65.3944 15.9115 64.9201 17.1989 64.4457C18.4186 63.9714 19.5027 63.4971 20.1126 63.2938Z" fill="#004181"/>
<path d="M71 47.4381C71 46.4217 70.9322 45.4053 70.6612 44.4567C70.3902 43.5758 69.8481 42.8305 69.1027 42.2206C68.9672 42.1529 68.8317 42.0173 68.6962 41.9496C68.4929 41.8141 68.2896 41.7463 67.8831 41.543C67.4765 41.3397 66.8667 41.0687 65.918 40.6621C65.1049 40.2556 64.3596 39.9168 63.682 39.578C61.8525 38.6294 59.6164 39.1714 58.329 40.7977C53.0437 47.5059 46.8098 53.2654 39.6951 58.0086C35.6295 60.5835 31.2929 62.8195 26.8208 64.649C23.2295 66.1397 20.0448 67.0884 17.741 67.8337C16.5891 68.1725 15.6404 68.5113 14.9628 68.7824C14.624 68.9179 14.353 69.0534 14.0142 69.2567C13.8787 69.3922 13.7432 69.5277 13.6076 69.6632C13.4721 69.8665 13.3366 70.1376 13.3366 70.4086C13.3366 70.4764 13.3366 70.5441 13.3366 70.5441C13.3366 70.6796 13.4044 70.8829 13.5399 71.0184C13.6754 71.2217 13.8787 71.425 14.082 71.4927C14.4208 71.6283 14.8273 71.7638 15.1661 71.8315C16.047 71.9671 16.8601 72.0348 17.741 72.1026C18.8251 72.1703 20.2481 72.2381 21.9421 72.2381C24.1104 72.3059 26.1432 72.3059 27.9727 72.3059C32.7158 72.3059 36.4426 72.1703 39.7628 72.1026C45.7934 71.9671 51.824 71.696 57.8546 71.696H58.0579C59.2776 71.696 60.3617 71.696 61.3104 71.696C62.8688 71.7638 64.4273 71.696 65.9858 71.425C66.5279 71.3572 67.0699 71.1539 67.612 70.8829C68.0863 70.6119 68.5607 70.3408 68.9672 69.9343C69.5093 69.3922 69.9158 68.7146 70.1869 67.9692C70.3902 67.2239 70.4579 66.4108 70.4579 65.5977C70.4579 64.3102 70.3902 62.7518 70.3902 60.5157C70.3902 59.0927 70.4579 57.3988 70.5257 55.4337C70.5934 52.3168 71 49.6742 71 47.4381ZM22.0098 70.3408C19.706 70.2731 17.9443 70.2053 16.7923 70.1376C16.9279 70.0698 17.0634 70.0698 17.1311 70.002C18.8251 69.46 21.4 68.6468 24.3814 67.5627C24.4492 68.5113 24.5847 69.46 24.6525 70.3408C23.8393 70.4086 22.9585 70.4086 22.0098 70.3408ZM27.9727 70.4086C27.5661 70.4086 27.0918 70.4086 26.6852 70.4086C26.5497 69.2567 26.4142 68.037 26.3464 66.8851C26.753 66.7496 27.0918 66.6141 27.4984 66.4108C29.3279 65.6654 31.0896 64.8523 32.5803 64.107C32.6481 66.2075 32.7158 68.2403 32.9191 70.3408C31.4284 70.4086 29.8022 70.4086 27.9727 70.4086ZM39.7628 70.2053C38.2044 70.2053 36.5781 70.2731 34.8841 70.3408C34.6809 68.1048 34.5453 65.8009 34.5453 63.5649C34.5453 63.4294 34.5454 63.3616 34.4776 63.2261C36.9847 61.9386 38.9497 60.7867 40.1016 60.0414C40.1694 63.4294 40.3049 66.8173 40.4404 70.2053C40.2372 70.2053 39.9661 70.2053 39.7628 70.2053ZM42.4055 70.1376C42.2022 66.4108 42.0667 62.684 41.9989 58.8895C41.9989 58.8217 41.9989 58.8217 41.9989 58.754C44.3705 57.1277 46.6743 55.2982 48.9104 53.4009C49.1137 58.8895 49.2492 64.4458 49.4525 69.9343C47.0809 70.002 44.7093 70.0698 42.4055 70.1376ZM58.871 69.8665H58.1257H57.9224C55.7541 69.8665 53.5858 69.9343 51.4175 69.9343C51.2142 63.9714 51.0109 58.0086 50.8076 52.0458C50.8076 51.978 50.8076 51.8425 50.7399 51.7747C53.1792 49.5386 55.4153 47.1671 57.5836 44.7277C58.0579 52.9944 58.5322 61.3288 59.0066 69.5955C58.9388 69.6632 58.871 69.731 58.871 69.8665ZM68.4929 55.4337C68.3574 57.4665 68.3574 59.2283 68.3574 60.6512C68.3574 62.955 68.4251 64.5813 68.4251 65.7332C68.4251 66.343 68.3574 66.9529 68.2218 67.5627C68.0863 67.9692 67.8831 68.3758 67.5443 68.6468C67.2732 68.9179 67.0022 69.1212 66.7311 69.2567C66.1213 69.5277 65.5115 69.6632 64.8339 69.731C63.953 69.7988 62.8011 69.8665 61.3104 69.8665H60.9038L59.3453 42.5594C59.4809 42.3561 59.6164 42.2206 59.7519 42.0173C60.2262 41.4075 60.9038 41.0687 61.6492 41.0687C61.988 41.0687 62.3945 41.1365 62.7333 41.3397C63.4109 41.6785 64.1563 42.0851 65.0372 42.4239C66.3246 43.0337 67.0022 43.3048 67.4087 43.508C67.612 43.5758 67.6798 43.6436 67.7475 43.6436C67.8153 43.6436 67.8153 43.7113 67.8831 43.7113C68.2896 44.0501 68.6284 44.5244 68.7639 44.9988C68.9672 45.7441 69.035 46.5572 69.035 47.3703C69.1027 49.4031 68.6962 52.1135 68.4929 55.4337Z" fill="#9E005D"/>
</svg>
