<svg width="32" height="32" viewBox="0 0 32 32" fill="none" xmlns="http://www.w3.org/2000/svg">
<path d="M23.058 4H8.94196C6.21259 4 4 6.18463 4 8.87951V22.8172C4 25.5121 6.21259 27.6968 8.94196 27.6968H23.058C25.7874 27.6968 28 25.5121 28 22.8172V8.87951C28 6.18463 25.7874 4 23.058 4Z" fill="#231F20"/>
<path d="M21.245 23.6259H10.7568C9.30484 23.6259 8.12402 22.46 8.12402 21.0265V10.6708C8.12402 9.23718 9.30484 8.07129 10.7568 8.07129H21.245C22.6969 8.07129 23.8777 9.23718 23.8777 10.6708V21.0265C23.8777 22.46 22.6969 23.6259 21.245 23.6259ZM10.7568 8.92159C9.7804 8.92159 8.98586 9.7061 8.98586 10.6701V21.0258C8.98586 21.9898 9.7804 22.7744 10.7568 22.7744H21.245C22.2213 22.7744 23.0159 21.9898 23.0159 21.0258V10.6708C23.0159 9.70674 22.2213 8.92223 21.245 8.92223H10.7568V8.92159Z" fill="white"/>
<path d="M16.0011 19.8394C14.9212 19.8394 13.9066 19.4242 13.1432 18.6703C12.3797 17.9165 11.9591 16.9141 11.9591 15.8485C11.9591 14.7829 12.3797 13.7806 13.1432 13.0268C13.9066 12.2729 14.9218 11.8577 16.0011 11.8577C17.0803 11.8577 18.0955 12.2729 18.859 13.0268C19.6224 13.7806 20.043 14.7829 20.043 15.8485C20.043 16.9141 19.6224 17.9165 18.859 18.6703C18.0955 19.4242 17.0803 19.8394 16.0011 19.8394ZM16.0011 12.708C14.2476 12.708 12.8209 14.1166 12.8209 15.8479C12.8209 17.5792 14.2476 18.9878 16.0011 18.9878C17.7545 18.9878 19.1812 17.5792 19.1812 15.8479C19.1812 14.1166 17.7545 12.708 16.0011 12.708Z" fill="white"/>
<path d="M21.7692 10.4072C21.8676 9.99547 21.6093 9.58292 21.1923 9.48575C20.7754 9.38857 20.3575 9.64356 20.2591 10.0553C20.1607 10.467 20.4189 10.8796 20.8359 10.9767C21.2529 11.0739 21.6708 10.8189 21.7692 10.4072Z" fill="white"/>
</svg>
