<svg width="32" height="32" viewBox="0 0 32 32" fill="none" xmlns="http://www.w3.org/2000/svg">
<path d="M23.058 4H8.94196C6.21259 4 4 6.18463 4 8.87951V22.8172C4 25.5121 6.21259 27.6967 8.94196 27.6967H23.058C25.7874 27.6967 28 25.5121 28 22.8172V8.87951C28 6.18463 25.7874 4 23.058 4Z" fill="#231F20"/>
<path d="M12.3167 13.5776H9.50793V22.4199H12.3167V13.5776Z" fill="white"/>
<path d="M19.9084 13.3809C19.8023 13.3694 19.6936 13.3611 19.5829 13.3566C18.0107 13.2934 17.1216 14.2146 16.815 14.6075C16.7334 14.7129 16.6927 14.7806 16.6927 14.7806V13.5975H14.0062V22.4397H16.815V18.2853C16.815 17.6854 16.7677 17.044 17.0718 16.4991C17.3293 16.0385 17.7945 15.8079 18.3212 15.8079C19.8721 15.8079 19.909 17.1935 19.909 17.3251V22.48H22.7177V16.7125C22.7177 14.7391 21.7019 13.5719 19.909 13.3809H19.9084Z" fill="white"/>
<path d="M12.4926 11.1926C12.6992 10.3282 12.1571 9.4622 11.2817 9.2582C10.4063 9.05421 9.52919 9.5895 9.32258 10.4538C9.11598 11.3181 9.65812 12.1842 10.5335 12.3882C11.4089 12.5922 12.286 12.0569 12.4926 11.1926Z" fill="white"/>
</svg>
