<svg width="32" height="32" viewBox="0 0 32 32" fill="none" xmlns="http://www.w3.org/2000/svg">
<path d="M16 15.3334C15.1159 15.3334 14.2681 14.9822 13.643 14.3571C13.0178 13.732 12.6667 12.8841 12.6667 12.0001C12.6667 11.116 13.0178 10.2682 13.643 9.64306C14.2681 9.01794 15.1159 8.66675 16 8.66675C16.884 8.66675 17.7319 9.01794 18.357 9.64306C18.9821 10.2682 19.3333 11.116 19.3333 12.0001C19.3333 12.4378 19.2471 12.8713 19.0796 13.2757C18.9121 13.6801 18.6665 14.0476 18.357 14.3571C18.0475 14.6666 17.68 14.9122 17.2756 15.0797C16.8712 15.2472 16.4377 15.3334 16 15.3334ZM16 2.66675C13.5246 2.66675 11.1507 3.65008 9.40033 5.40042C7.64999 7.15076 6.66666 9.52473 6.66666 12.0001C6.66666 19.0001 16 29.3334 16 29.3334C16 29.3334 25.3333 19.0001 25.3333 12.0001C25.3333 9.52473 24.35 7.15076 22.5997 5.40042C20.8493 3.65008 18.4753 2.66675 16 2.66675Z" fill="#231F20"/>
</svg>
