<svg width="32" height="32" viewBox="0 0 32 32" fill="none" xmlns="http://www.w3.org/2000/svg">
<circle cx="16" cy="16" r="16" fill="#004181"/>
<path d="M23.2875 24.25C21.3778 24.25 19.491 23.8338 17.6271 23.0015C15.7632 22.1692 14.0674 20.9888 12.5396 19.4604C11.0118 17.932 9.83175 16.2362 8.99942 14.3729C8.16708 12.5096 7.75061 10.6228 7.75 8.7125C7.75 8.4375 7.84167 8.20833 8.025 8.025C8.20833 7.84167 8.4375 7.75 8.7125 7.75H12.425C12.6389 7.75 12.8299 7.82272 12.9979 7.96817C13.166 8.11361 13.2653 8.28533 13.2958 8.48333L13.8917 11.6917C13.9222 11.9361 13.9146 12.1424 13.8688 12.3104C13.8229 12.4785 13.7389 12.6236 13.6167 12.7458L11.3937 14.9917C11.6993 15.5569 12.062 16.103 12.4818 16.6298C12.9017 17.1565 13.364 17.6647 13.8688 18.1542C14.3424 18.6278 14.8389 19.0672 15.3583 19.4723C15.8778 19.8775 16.4278 20.2478 17.0083 20.5833L19.1625 18.4292C19.3 18.2917 19.4797 18.1887 19.7015 18.1202C19.9233 18.0518 20.1409 18.0326 20.3542 18.0625L23.5167 18.7042C23.7306 18.7653 23.9062 18.8762 24.0438 19.0369C24.1813 19.1976 24.25 19.377 24.25 19.575V23.2875C24.25 23.5625 24.1583 23.7917 23.975 23.975C23.7917 24.1583 23.5625 24.25 23.2875 24.25Z" fill="white"/>
</svg>
