<svg width="80" height="80" viewBox="0 0 80 80" fill="none" xmlns="http://www.w3.org/2000/svg">
<path d="M70.6141 17.9751L42.3154 10C42.1867 10 42.0581 10 41.9295 10L13.6307 17.8465C13.3734 17.9751 13.1162 18.2324 13.1162 18.4896V46.1452C10.6722 48.5892 9.25726 51.9336 9.25726 55.5353C9.25726 62.9958 15.3029 69.0415 22.7635 69.0415C27.6515 69.0415 32.0249 66.3402 34.3402 62.4813L41.9295 63.8963H42.0581H42.1867L70.4855 58.751C70.7427 58.751 71 58.3651 71 58.1079V18.4896C71 18.2324 70.8714 17.9751 70.6141 17.9751Z" fill="white"/>
<path d="M55.5643 15.0166L61.9959 16.8174V25.8216C61.9959 25.9502 61.8672 26.2075 61.7386 26.3361C61.61 26.4647 61.3527 26.4647 61.2241 26.4647L56.0788 25.5643C55.8216 25.5643 55.5643 25.3071 55.5643 24.9212V15.0166Z" fill="#004181"/>
<path d="M36.2697 55.6639C36.2697 48.2033 30.2241 42.1577 22.7635 42.1577C19.5477 42.1577 16.7178 43.3153 14.4025 45.1162V19.0041L41.4149 11.4149V62.4813L34.9834 61.3236C35.7552 59.6514 36.2697 57.722 36.2697 55.6639Z" fill="#004181"/>
<path d="M69.7137 57.722L42.7012 62.61V11.5436L54.278 14.7593V25.0498C54.278 25.9502 54.9212 26.8506 55.9502 26.9793L61.0954 27.8797C61.2241 27.8797 61.3527 27.8797 61.3527 27.8797C61.8672 27.8797 62.2531 27.751 62.639 27.3652C63.0249 26.9793 63.2822 26.4647 63.2822 25.9502V17.332L69.7137 19.1328V57.722Z" fill="#004181"/>
<path d="M22.7635 69.0415C30.3649 69.0415 36.527 62.8794 36.527 55.278C36.527 47.6766 30.3649 41.5145 22.7635 41.5145C15.1621 41.5145 9 47.6766 9 55.278C9 62.8794 15.1621 69.0415 22.7635 69.0415Z" fill="#9E005D"/>
<path d="M30.7386 52.0622C30.4813 51.9336 30.2241 51.9336 30.0954 52.0622C30.0954 52.0622 29.7095 52.3195 29.0664 52.7054C28.5519 52.1909 27.5228 51.6763 25.9793 51.6763C25.722 50.5187 25.3361 49.6182 25.2075 49.361C24.4357 48.3319 22.8921 48.2033 22.6349 48.2033C22.3776 48.2033 20.834 48.2033 20.0622 49.361C19.805 49.6182 19.5477 50.6473 19.2905 51.6763C17.7469 51.6763 16.7178 52.3195 16.2033 52.7054C15.6888 52.3195 15.3029 52.0622 15.1743 52.0622C14.917 51.9336 14.7884 51.9336 14.5311 52.0622C14.2739 52.1909 14.1452 52.3195 14.1452 52.5767C14.0166 55.6639 14.2739 59.3942 14.917 60.8091C15.0456 60.9377 15.1743 61.0664 15.3029 61.195C17.7469 62.0954 20.0622 62.4813 22.5062 62.4813C24.9502 62.4813 27.2656 62.0954 29.7095 61.195C29.8382 61.195 29.9668 61.0664 30.0954 60.8091C30.61 59.6514 30.9958 56.307 30.8672 52.5767C31.1245 52.3195 30.9958 52.1909 30.7386 52.0622Z" fill="white"/>
<path d="M27.9087 53.6058C27.5228 53.9917 27.0083 54.3776 26.6224 54.8921C26.4938 54.249 26.3651 53.6058 26.2365 52.9626C27.0083 53.0913 27.6515 53.3485 27.9087 53.6058Z" fill="#004181"/>
<path d="M19.1618 52.9626C19.0332 53.6058 18.9046 54.3776 18.7759 54.8921C18.39 54.3776 17.8755 53.9917 17.4896 53.6058C17.7469 53.3485 18.39 53.0913 19.1618 52.9626Z" fill="#004181"/>
<path d="M29.3237 59.9087C24.9502 61.4523 20.7054 61.4523 16.332 59.9087C16.0747 59.0083 15.6888 56.693 15.6888 53.7345C16.4606 54.3776 17.7469 55.4067 18.39 56.693C18.5187 56.9502 18.7759 57.0789 19.0332 56.9502C19.2905 56.9502 19.5477 56.693 19.5477 56.4357C20.1909 53.6058 20.9627 50.2614 21.2199 49.8755C21.4772 49.4897 22.3776 49.361 22.6349 49.361C22.8921 49.361 23.7925 49.4897 24.0498 49.8755C24.3071 50.2614 25.0788 53.6058 25.722 56.4357C25.722 56.693 25.9793 56.9502 26.2365 56.9502C26.4938 56.9502 26.751 56.8216 26.8797 56.693C27.6515 55.4067 28.8091 54.3776 29.5809 53.7345C29.8382 56.8216 29.5809 59.0083 29.3237 59.9087Z" fill="#004181"/>
<path d="M23.6639 57.4647C23.6639 58.8797 23.1494 59.2656 22.5062 59.2656C21.8631 59.2656 21.3485 58.8797 21.3485 57.4647C21.3485 56.0498 21.8631 54.249 22.5062 54.249C23.1494 54.249 23.6639 56.1784 23.6639 57.4647Z" fill="white"/>
</svg>
