<svg width="80" height="80" viewBox="0 0 80 80" fill="none" xmlns="http://www.w3.org/2000/svg">
<path d="M32.702 13.0713V25.257H10.7408V13.0713H32.702ZM9.66956 13.7408V27.5335H33.9071V13.7408C33.9071 12.8035 33.1037 12 32.1663 12H11.4104C10.473 12 9.66956 12.6695 9.66956 13.7408Z" fill="#004181"/>
<path d="M32.568 31.5507C33.5054 31.5507 34.3089 30.7473 34.3089 29.8099V28.4708H24.9352V29.0065C24.9352 29.4082 24.6674 29.676 24.2657 29.676H19.0432C18.6415 29.676 18.3736 29.4082 18.3736 29.0065V28.4708H9V29.8099C9 30.7473 9.80346 31.5507 10.7408 31.5507H32.568Z" fill="#004181"/>
<path d="M68.7235 67.1706C68.5896 67.1706 68.4557 67.0367 68.4557 66.9028C68.4557 66.7689 68.5896 66.635 68.7235 66.635C68.8574 66.635 68.9913 66.7689 68.9913 66.9028C68.8574 67.0367 68.8574 67.1706 68.7235 67.1706ZM68.054 67.1706C67.9201 67.1706 67.7862 67.0367 67.7862 66.9028C67.7862 66.7689 67.9201 66.635 68.054 66.635C68.1879 66.635 68.3218 66.7689 68.3218 66.9028C68.3218 67.0367 68.1879 67.1706 68.054 67.1706ZM67.3844 67.1706C67.2505 67.1706 67.1166 67.0367 67.1166 66.9028C67.1166 66.7689 67.2505 66.635 67.3844 66.635C67.5183 66.635 67.6523 66.7689 67.6523 66.9028C67.6523 67.0367 67.5183 67.1706 67.3844 67.1706ZM65.108 67.7063C64.7063 67.7063 64.4384 67.4384 64.4384 67.0367C64.4384 66.635 64.7063 66.3672 65.108 66.3672C65.5097 66.3672 65.7775 66.635 65.7775 67.0367C65.7775 67.3045 65.5097 67.7063 65.108 67.7063ZM62.6976 67.1706C62.5637 67.1706 62.4298 67.0367 62.4298 66.9028C62.4298 66.7689 62.5637 66.635 62.6976 66.635C62.8315 66.635 62.9654 66.7689 62.9654 66.9028C62.9654 67.0367 62.8315 67.1706 62.6976 67.1706ZM62.0281 67.1706C61.8942 67.1706 61.7602 67.0367 61.7602 66.9028C61.7602 66.7689 61.8942 66.635 62.0281 66.635C62.162 66.635 62.2959 66.7689 62.2959 66.9028C62.2959 67.0367 62.162 67.1706 62.0281 67.1706ZM61.4924 67.1706C61.3585 67.1706 61.2246 67.0367 61.2246 66.9028C61.2246 66.7689 61.3585 66.635 61.4924 66.635C61.6263 66.635 61.7602 66.7689 61.7602 66.9028C61.6263 67.0367 61.6263 67.1706 61.4924 67.1706ZM59.7516 65.6976V49.0929H70.3304V65.8315H59.7516V65.6976ZM63.9028 48.0216H66.3132C66.4471 48.0216 66.581 48.1555 66.581 48.2894C66.581 48.4233 66.4471 48.5572 66.3132 48.5572H63.9028C63.7689 48.5572 63.635 48.4233 63.635 48.2894C63.635 48.1555 63.7689 48.0216 63.9028 48.0216ZM71 67.3045V48.2894C71 47.8877 70.5983 47.486 70.1965 47.486H59.8855C59.4838 47.486 59.0821 47.8877 59.0821 48.2894V67.3045C59.0821 67.7063 59.4838 68.108 59.8855 68.108H70.0626C70.5983 68.108 71 67.7063 71 67.3045Z" fill="#004181"/>
<path d="M43.013 56.19V50.298C41.1382 50.298 39.2635 50.5659 37.3888 50.9676C37.6566 51.6371 37.9244 52.1728 38.3261 52.7084C39.6652 54.717 41.2721 55.9222 43.013 56.19Z" fill="#9E005D"/>
<path d="M43.013 44.4061H36.0497C36.0497 46.2808 36.4514 48.0216 36.987 49.6285C38.9957 49.2268 41.0043 48.959 43.013 48.959V44.4061Z" fill="#9E005D"/>
<path d="M33.5054 50.5659C34.1749 50.2981 34.9784 50.1642 35.6479 49.8963C35.1123 48.1555 34.8445 46.2808 34.7106 44.4061H31.3629C31.6307 46.6825 32.3002 48.6912 33.5054 50.5659Z" fill="#9E005D"/>
<path d="M36.1836 51.1015C35.514 51.2354 34.9784 51.3693 34.4427 51.6371C35.514 52.9762 36.987 54.0475 38.46 54.851C38.0583 54.4492 37.6566 53.9136 37.2548 53.378C36.8531 52.7084 36.4514 51.905 36.1836 51.1015Z" fill="#9E005D"/>
<path d="M49.0389 52.5745C49.4406 52.0389 49.7084 51.3693 49.9762 50.8337C48.1015 50.4319 46.2268 50.1641 44.3521 50.1641V56.0561C46.0929 55.9222 47.6998 54.717 49.0389 52.5745Z" fill="#9E005D"/>
<path d="M44.3521 48.8251C46.3607 48.8251 48.3693 49.0929 50.378 49.4946C50.9136 47.8877 51.1814 46.1469 51.3153 44.2722H44.3521V48.8251Z" fill="#9E005D"/>
<path d="M51.7171 49.8963C52.3866 50.0303 53.1901 50.2981 53.8596 50.5659C55.0648 48.8251 55.7343 46.6825 55.8683 44.4061H52.5205C52.6544 46.2808 52.2527 48.1555 51.7171 49.8963Z" fill="#9E005D"/>
<path d="M53.0562 51.6371C52.5205 51.5032 51.851 51.2354 51.3153 51.1015C51.0475 51.905 50.6458 52.5745 50.2441 53.244C49.8423 53.7797 49.4406 54.3153 49.0389 54.7171C50.6458 54.1814 51.9849 52.9762 53.0562 51.6371Z" fill="#9E005D"/>
<path d="M44.3521 31.149V37.0411C46.2268 37.0411 48.1015 36.7732 49.9762 36.3715C49.7084 35.702 49.4406 35.1663 49.0389 34.6307C47.6998 32.6221 46.0929 31.4169 44.3521 31.149Z" fill="#9E005D"/>
<path d="M50.378 37.7106C48.3693 38.1123 46.3607 38.3801 44.3521 38.3801V42.7991H51.3153C51.3153 41.1922 50.9136 39.3175 50.378 37.7106Z" fill="#9E005D"/>
<path d="M53.9935 36.7732C53.324 37.041 52.5205 37.1749 51.851 37.4427C52.3866 39.1836 52.6544 41.0583 52.7883 42.933H56.1361C55.8683 40.6566 55.0648 38.6479 53.9935 36.7732Z" fill="#9E005D"/>
<path d="M49.0389 32.4881C49.4406 32.8898 49.8423 33.4255 50.2441 33.9611C50.6458 34.6306 51.0475 35.4341 51.3153 36.1036C51.9849 35.9697 52.5205 35.8358 53.0562 35.568C51.9849 34.3628 50.6458 33.1576 49.0389 32.4881Z" fill="#9E005D"/>
<path d="M43.013 31.149C41.2721 31.4169 39.6652 32.6221 38.3261 34.6307C37.9244 35.1663 37.6566 35.8359 37.3888 36.3715C39.2635 36.7732 41.1382 37.0411 43.013 37.0411V31.149Z" fill="#9E005D"/>
<path d="M43.013 38.514C41.0043 38.514 38.9957 38.2462 36.987 37.8445C36.4514 39.4514 36.1836 41.1922 36.0497 43.0669H43.013V38.514Z" fill="#9E005D"/>
<path d="M31.4968 42.933H34.8445C34.8445 40.9244 35.2462 39.0497 35.7819 37.4427C35.1123 37.3088 34.3089 37.041 33.6393 36.7732C32.3002 38.6479 31.6307 40.6566 31.4968 42.933Z" fill="#9E005D"/>
<path d="M36.1836 36.2376C36.4514 35.4341 36.8531 34.7646 37.2548 34.095C37.6566 33.5594 38.0583 33.0237 38.46 32.622C36.8531 33.4255 35.514 34.4967 34.4427 35.8358C34.9784 35.8358 35.514 35.9697 36.1836 36.2376Z" fill="#9E005D"/>
<path d="M60.8229 64.6263H69.2592V50.1641H60.8229V64.6263Z" fill="#9E005D"/>
<path d="M31.7646 14.0087H11.6782V24.1858H31.7646V14.0087Z" fill="#9E005D"/>
<path d="M62.9654 38.9158H60.8229C60.2873 38.9158 60.0194 39.4514 60.2873 39.8532L64.4385 44.2722C64.7063 44.6739 65.2419 44.6739 65.3758 44.2722L69.527 39.8532C69.7948 39.4514 69.527 38.9158 68.9914 38.9158H66.7149C66.1793 33.6933 63.9028 28.7387 60.1534 24.9892C55.8683 20.7041 50.1102 18.2938 44.0842 18.2938H39.1296C38.594 18.2938 38.1922 18.6955 38.1922 19.2311V21.2398C38.1922 21.7754 38.594 22.1771 39.1296 22.1771H44.0842C53.9935 22.311 61.8942 29.5421 62.9654 38.9158Z" fill="#004181"/>
<path d="M27.2117 44.5399L23.0605 40.1209C22.7927 39.7192 22.257 39.7192 22.1231 40.1209L17.9719 44.5399C17.7041 44.9417 17.9719 45.4773 18.5076 45.4773H20.784C21.3196 50.6998 23.5961 55.6544 27.3456 59.4039C31.6307 63.689 37.3888 66.0993 43.4147 66.0993H48.3693C48.905 66.0993 49.3067 65.6976 49.3067 65.162V63.1533C49.3067 62.6177 48.905 62.216 48.3693 62.216H43.4147C33.7732 62.216 25.7387 54.851 24.6674 45.4773H26.8099C27.2117 45.6112 27.4795 44.9417 27.2117 44.5399Z" fill="#004181"/>
</svg>
