<svg width="80" height="80" viewBox="0 0 80 80" fill="none" xmlns="http://www.w3.org/2000/svg">
<path d="M65.8333 56.6C65.6857 56.6 65.5381 56.6 65.3905 56.4524C65.0952 56.3048 64.9476 55.7143 65.0952 55.419C67.9 50.8429 69.5238 45.381 69.5238 39.9191C69.5238 34.7524 68.1952 29.5857 65.5381 25.1571C65.3905 24.8619 65.3905 24.2714 65.8333 24.1238C66.1286 23.9762 66.719 23.9762 66.8667 24.419C69.5238 28.9952 71 34.4571 71 39.9191C71 45.6762 69.3762 51.2857 66.4238 56.1571C66.2762 56.4524 65.981 56.6 65.8333 56.6Z" fill="#004181"/>
<path d="M14.1667 56.6C13.8714 56.6 13.7238 56.4524 13.5762 56.3048C10.6238 51.4334 9 45.8238 9 40.0667C9 34.6048 10.4762 29.1429 13.1333 24.4191C13.281 24.1238 13.8714 23.9762 14.1667 24.1238C14.4619 24.2714 14.6095 24.8619 14.4619 25.1572C11.8048 29.5857 10.4762 34.7524 10.4762 39.9191C10.4762 45.381 11.9524 50.6953 14.9048 55.4191C15.0524 55.7143 15.0524 56.1572 14.6095 56.4524C14.4619 56.4524 14.3143 56.6 14.1667 56.6Z" fill="#004181"/>
<path d="M18.4476 16.4476C18.4476 16.7428 18.4476 17.0381 18.5952 17.3333C18.5952 17.6285 18.7429 18.0714 18.7429 18.5143C18.7429 18.9571 18.8905 19.4 19.0381 19.8428C19.1857 20.2857 19.1857 20.7285 19.3333 21.0238L21.2524 18.9571L21.9905 19.6952L19.0381 22.9428L18.4476 22.5C18.3 22.2047 18.3 21.9095 18.1524 21.4666C18.0048 21.0238 18.0048 20.7285 17.8571 20.2857C17.7095 19.8428 17.7095 19.5476 17.5619 19.1047C17.5619 18.6619 17.4143 18.3666 17.4143 18.0714L15.6429 19.8428L14.9048 18.9571L17.7095 15.8571L18.4476 16.4476Z" fill="#9E005D"/>
<path d="M22.4333 19.2524L19.0381 14.8238L22.1381 12.6095L22.7286 13.4952L20.6619 14.9714L21.2524 15.8571L23.0238 14.5285L23.6143 15.4143L21.8429 16.7428L22.581 17.7762L24.7952 16.1524L25.3857 17.0381L22.4333 19.2524Z" fill="#9E005D"/>
<path d="M25.0905 10.6905C25.8286 10.2476 26.419 10.1 27.0095 10.2476C27.6 10.2476 27.8952 10.6905 28.1905 11.1333C28.3381 11.4286 28.4857 11.8714 28.3381 12.1667C28.3381 12.4619 28.1905 12.7571 27.8952 13.0524C28.0429 13.2 28.1905 13.2 28.4857 13.3476C28.6333 13.4952 28.9286 13.4952 29.0762 13.6429C29.2238 13.7905 29.519 13.9381 29.6667 14.0857C29.8143 14.2333 30.1095 14.381 30.2571 14.5286L28.9286 15.119C28.7809 14.9714 28.6333 14.8238 28.3381 14.8238C28.1905 14.6762 28.0429 14.5286 27.7476 14.5286C27.6 14.381 27.4524 14.381 27.1571 14.2333C27.0095 14.0857 26.8619 14.0857 26.7143 13.9381L26.419 14.0857L27.3048 15.8571L26.1238 16.4476L23.7619 11.5762C24.0571 11.4286 24.2048 11.281 24.5 11.1333C24.6476 10.9857 24.9429 10.8381 25.0905 10.6905ZM25.6809 11.7238C25.5333 11.7238 25.5333 11.8714 25.5333 11.8714C25.5333 11.8714 25.3857 11.8714 25.3857 12.019L26.1238 13.3476L26.419 13.2C26.8619 13.0524 27.1571 12.7571 27.3048 12.6095C27.4524 12.4619 27.4524 12.1667 27.3048 11.8714C27.1571 11.5762 27.0095 11.4286 26.7143 11.4286C26.419 11.4286 26.1238 11.4286 25.6809 11.7238Z" fill="#9E005D"/>
<path d="M35.1286 10.2476C35.2762 10.6905 35.2762 11.1333 35.2762 11.5762C35.2762 12.019 35.1286 12.3143 34.981 12.6095C34.8333 12.9048 34.5381 13.2 34.2429 13.3476C33.9476 13.4952 33.6524 13.6428 33.2095 13.7905C32.7667 13.9381 32.4714 13.9381 32.1762 13.9381C31.881 13.9381 31.4381 13.7905 31.1429 13.6428C30.8476 13.4952 30.5524 13.2 30.4048 12.9048C30.1095 12.6095 29.9619 12.1667 29.8143 11.7238C29.6667 11.2809 29.6667 10.8381 29.6667 10.3952C29.6667 9.95237 29.8143 9.65714 29.9619 9.3619C30.1095 9.06666 30.4048 8.77142 30.7 8.6238C30.9952 8.47618 31.2905 8.32856 31.7333 8.18094C32.1762 8.03333 32.4714 8.03333 32.7667 8.03333C33.0619 8.03333 33.5048 8.18095 33.8 8.32856C34.0952 8.47618 34.3905 8.77142 34.5381 9.06666C34.8333 9.50952 34.981 9.80475 35.1286 10.2476ZM30.9952 11.4286C30.9952 11.7238 31.1429 11.8714 31.2905 12.1667C31.4381 12.3143 31.5857 12.4619 31.7333 12.6095C31.8809 12.7571 32.0286 12.7571 32.3238 12.9048C32.4714 12.9048 32.7667 12.9048 32.9143 12.9048C33.2095 12.9048 33.3571 12.7571 33.5048 12.6095C33.6524 12.4619 33.8 12.3143 33.8 12.1667C33.9476 12.019 33.9476 11.7238 33.9476 11.5762C33.9476 11.2809 33.9476 11.1333 33.8 10.8381C33.8 10.5428 33.6524 10.3952 33.5048 10.1C33.3571 9.95237 33.2095 9.80475 33.0619 9.65714C32.9143 9.50952 32.7667 9.50952 32.4714 9.3619C32.3238 9.3619 32.0286 9.3619 31.8809 9.3619C31.5857 9.3619 31.4381 9.50952 31.2905 9.65714C31.1429 9.80475 30.9952 9.95237 30.9952 10.1C30.8476 10.2476 30.8476 10.5428 30.8476 10.6905C30.8476 10.8381 30.8476 11.1333 30.9952 11.4286Z" fill="#9E005D"/>
<path d="M42.5095 7.88571C42.5095 8.18095 42.6571 8.32857 42.6571 8.62381C42.6571 8.91905 42.8048 9.21429 42.8048 9.50952C42.8048 9.80476 42.9524 10.1 42.9524 10.3952C42.9524 10.6905 43.1 10.9857 43.1 11.281C43.2476 10.9857 43.2476 10.6905 43.3952 10.3952C43.5429 10.1 43.5429 9.80476 43.6905 9.36191C43.8381 9.06667 43.8381 8.62381 43.9857 8.32857C44.1333 8.03333 44.1333 7.73809 44.281 7.29524L45.6095 7.44286C45.3143 8.32857 45.1667 9.3619 44.7238 10.2476C44.4286 11.1333 44.1333 12.019 43.8381 12.9048H42.6571C42.5095 12.3143 42.3619 11.8714 42.2143 11.281C42.0667 10.6905 41.919 10.1 41.7714 9.50952C41.6238 10.1 41.3286 10.6905 41.181 11.1333C41.0333 11.5762 40.7381 12.1667 40.5905 12.7571H39.4095C39.1143 11.8714 38.9667 10.9857 38.819 9.95238C38.6714 8.91905 38.5238 8.03333 38.3762 7L39.7048 7.14762C39.7048 7.44286 39.8524 7.7381 39.8524 8.18095C39.8524 8.47619 40 8.91905 40 9.21429C40 9.50952 40.1476 9.95238 40.1476 10.2476C40.1476 10.5429 40.2952 10.8381 40.2952 11.1333C40.4429 10.8381 40.5905 10.5429 40.5905 10.2476C40.5905 9.95238 40.7381 9.65714 40.8857 9.36191C41.0333 9.06667 41.0333 8.77143 41.181 8.47619C41.3286 8.18095 41.3286 8.03333 41.4762 7.7381L42.5095 7.88571Z" fill="#9E005D"/>
<path d="M49.0048 14.3809C49.0048 14.2333 49.0048 13.9381 49.0048 13.7905C49.0048 13.6429 49.0048 13.3476 49.0048 13.2L46.9381 12.6095C46.7905 12.7571 46.6429 12.9048 46.4952 13.2C46.3476 13.3476 46.2 13.4952 46.2 13.7905L45.019 13.4952C45.4619 12.9048 45.7571 12.4619 46.0524 12.019C46.3476 11.5762 46.6429 11.1333 46.9381 10.8381C47.2333 10.3952 47.5286 10.1 47.8238 9.80476C48.119 9.50952 48.4143 9.06666 48.7095 8.77142L49.8905 9.06666C49.8905 9.50952 50.0381 9.95238 50.0381 10.3952C50.0381 10.8381 50.1857 11.2809 50.1857 11.7238C50.1857 12.1667 50.3333 12.7571 50.3333 13.2C50.3333 13.7905 50.4809 14.3809 50.4809 14.9714L49.0048 14.3809ZM48.7095 9.80476C48.7095 9.80476 48.5619 9.95238 48.5619 10.1C48.4143 10.2476 48.4143 10.3952 48.2667 10.5429C48.119 10.6905 47.9714 10.8381 47.8238 10.9857C47.6762 11.1333 47.5286 11.4286 47.3809 11.5762L48.8571 12.019C48.8571 11.7238 48.8571 11.5762 48.8571 11.2809C48.8571 10.9857 48.8571 10.8381 48.8571 10.6905C48.8571 10.5429 48.8571 10.3952 48.8571 10.1C48.8571 9.95238 48.8571 9.80476 48.7095 9.80476Z" fill="#9E005D"/>
<path d="M52.6952 14.8238C52.8429 14.9715 52.9905 14.9715 53.1381 14.9715C53.2857 14.9715 53.2857 14.9715 53.4333 14.9715C53.581 14.9715 53.581 14.9715 53.581 14.8238L53.7286 14.6762C53.8762 14.5286 53.8762 14.381 53.7286 14.0857C53.581 13.9381 53.4333 13.6429 53.1381 13.3476C52.9905 13.2 52.8429 13.0524 52.6952 12.9048C52.5476 12.7572 52.4 12.6095 52.4 12.4619C52.4 12.3143 52.2524 12.1667 52.2524 11.8715C52.2524 11.7238 52.2524 11.4286 52.4 11.281C52.5476 10.9857 52.6952 10.8381 52.8429 10.6905C52.9905 10.5429 53.2857 10.3953 53.4333 10.3953C53.7286 10.3953 53.8762 10.3953 54.1714 10.3953C54.4667 10.3953 54.7619 10.5429 55.0571 10.6905C55.3524 10.8381 55.6476 10.9857 55.9429 11.281C56.0905 11.4286 56.2381 11.7238 56.3857 11.8715L55.6476 12.6095C55.5 12.4619 55.3524 12.3143 55.3524 12.1667C55.2048 12.0191 55.0571 11.8715 54.7619 11.7238C54.4667 11.5762 54.319 11.5762 54.1714 11.5762C54.0238 11.5762 53.8762 11.7238 53.8762 11.8715C53.8762 12.0191 53.8762 12.0191 53.8762 12.1667C53.8762 12.3143 53.8762 12.3143 54.0238 12.4619C54.0238 12.6095 54.1714 12.6096 54.1714 12.7572C54.319 12.9048 54.319 12.9048 54.4667 13.0524C54.6143 13.3476 54.9095 13.4953 55.0571 13.6429C55.2048 13.7905 55.3524 14.0857 55.3524 14.2334C55.3524 14.381 55.5 14.6762 55.3524 14.8238C55.3524 14.9715 55.2048 15.2667 55.2048 15.4143C54.9095 15.8572 54.6143 16.1524 54.1714 16.3C53.7286 16.4476 53.1381 16.3 52.5476 15.8572C51.9571 15.7096 51.8095 15.5619 51.6619 15.5619C51.5143 15.4143 51.3667 15.2667 51.219 15.2667C51.0714 15.1191 51.0714 15.1191 50.9238 14.9715C50.7762 14.8238 50.7762 14.8238 50.7762 14.6762L51.5143 13.9381C51.6619 14.0857 51.8095 14.2334 51.9571 14.381C52.1048 14.5286 52.4 14.6762 52.6952 14.8238Z" fill="#9E005D"/>
<path d="M61.4048 15.1191L60.6667 15.8572L59.3381 14.8238L56.6809 18.5143L55.6476 17.7762L58.3048 14.0857L56.9762 13.0524L57.5667 12.1667L61.4048 15.1191Z" fill="#9E005D"/>
<path d="M58.4524 19.9905L62.4381 16.1524L65.0952 18.9572L64.3571 19.6953L62.5857 17.9238L61.8476 18.5143L63.3238 20.1381L62.5857 20.8762L61.1095 19.2524L60.0762 20.1381L61.9952 22.0572L61.2571 22.7953L58.4524 19.9905Z" fill="#9E005D"/>
<path d="M21.4 61.0286C21.1048 61.0286 20.8095 61.0286 20.5143 61.0286C20.0714 61.0286 19.7762 61.1762 19.3333 61.1762C18.8905 61.1762 18.4476 61.3238 18.0048 61.3238C17.5619 61.4714 17.119 61.4714 16.8238 61.619L18.8905 63.6857L18.1524 64.4238L14.9048 61.3238L15.4952 60.7333C15.7905 60.5857 16.0857 60.5857 16.5286 60.4381C16.9714 60.2905 17.2667 60.2905 17.7095 60.1428C18.1524 60.1428 18.5952 59.9952 18.8905 59.9952C19.3333 59.9952 19.6286 59.8476 19.9238 59.8476L18.1524 58.0762L18.8905 57.3381L21.8429 60.2905L21.4 61.0286Z" fill="#9E005D"/>
<path d="M19.1857 65.4572L22.4333 60.881L25.5333 63.0953L24.9429 63.981L22.8762 62.5048L22.2857 63.3905L24.0571 64.7191L23.4667 65.6048L21.6952 64.2762L20.8095 65.3096L23.0238 66.9334L22.4333 67.8191L19.1857 65.4572Z" fill="#9E005D"/>
<path d="M27.7476 64.1286C28.4857 64.4238 29.0762 64.8667 29.3714 65.3095C29.6667 65.7524 29.6667 66.3428 29.3714 66.9333C29.2238 67.2286 28.9286 67.5238 28.7809 67.6714C28.4857 67.819 28.1905 67.819 27.8952 67.819C27.8952 67.9667 28.0429 68.2619 28.0429 68.4095C28.0429 68.5571 28.0429 68.8524 28.1905 69.1476C28.1905 69.4428 28.1905 69.5905 28.1905 69.8857C28.1905 70.1809 28.1905 70.3286 28.1905 70.6238L26.7143 69.8857C26.7143 69.7381 26.7143 69.4429 26.7143 69.2952C26.7143 69.1476 26.7143 68.8524 26.7143 68.7048C26.7143 68.5571 26.7143 68.2619 26.5667 68.1143C26.5667 67.9667 26.5667 67.819 26.419 67.5238L25.8286 67.2286L24.9429 69.1476L23.7619 68.5571L26.1238 63.5381C26.419 63.5381 26.7143 63.6857 27.0095 63.8333C27.3048 63.9809 27.6 63.9809 27.7476 64.1286ZM27.4524 65.1619C27.3048 65.1619 27.3048 65.1619 27.1571 65.0143C27.1571 65.0143 27.0095 65.0143 27.0095 64.8667L26.419 66.1952L26.7143 66.3429C27.1571 66.4905 27.4524 66.6381 27.7476 66.6381C28.0429 66.6381 28.1905 66.4905 28.3381 66.1952C28.4857 65.9 28.4857 65.7524 28.3381 65.4571C28.0429 65.4571 27.7476 65.3095 27.4524 65.1619Z" fill="#9E005D"/>
<path d="M35.1286 69.5905C34.981 70.0334 34.8333 70.4762 34.5381 70.7715C34.2429 71.0667 34.0952 71.3619 33.8 71.5096C33.5048 71.6572 33.2095 71.8048 32.7667 71.8048C32.4714 71.8048 32.0286 71.8048 31.5857 71.6572C31.1429 71.5096 30.8476 71.3619 30.5524 71.2143C30.2571 71.0667 29.9619 70.7715 29.8143 70.4762C29.6667 70.181 29.5191 69.8857 29.5191 69.4429C29.5191 69 29.5191 68.5572 29.6667 68.1143C29.8143 67.6715 29.9619 67.2286 30.2571 66.9334C30.5524 66.6381 30.7 66.3429 31.1429 66.1953C31.4381 66.0476 31.7333 65.9 32.1762 65.9C32.4714 65.9 32.9143 65.9 33.2095 66.0476C33.6524 66.1953 33.9476 66.3429 34.2429 66.4905C34.5381 66.6381 34.8333 66.9334 34.981 67.2286C35.1286 67.5238 35.2762 67.8191 35.2762 68.2619C35.2762 68.7048 35.2762 69.1476 35.1286 69.5905ZM30.9952 68.5572C30.9952 68.8524 30.8476 69.1476 30.8476 69.2953C30.8476 69.5905 30.8476 69.7381 30.9952 69.8857C31.1429 70.0334 31.1429 70.181 31.2905 70.3286C31.4381 70.4762 31.5857 70.6238 31.881 70.6238C32.1762 70.6238 32.3238 70.6238 32.4714 70.6238C32.6191 70.6238 32.9143 70.4762 33.0619 70.3286C33.2095 70.181 33.3571 70.0334 33.5048 69.8857C33.6524 69.7381 33.6524 69.4429 33.8 69.1476C33.8 68.8524 33.9476 68.5572 33.9476 68.4095C33.9476 68.1143 33.9476 67.9667 33.8 67.8191C33.6524 67.6715 33.6524 67.5238 33.5048 67.3762C33.3571 67.2286 33.2095 67.081 32.9143 67.081C32.6191 67.081 32.4714 67.081 32.3238 67.081C32.1762 67.081 31.881 67.2286 31.7333 67.3762C31.5857 67.5238 31.4381 67.6715 31.2905 67.8191C31.1429 68.1143 31.1429 68.2619 30.9952 68.5572Z" fill="#9E005D"/>
<path d="M42.0667 67.5238C42.2143 67.6714 42.2143 67.9667 42.3619 68.2619C42.5095 68.5572 42.5095 68.8524 42.6571 69.1476C42.8048 69.4429 42.8048 69.7381 42.9524 70.0334C43.1 70.3286 43.1 70.6238 43.2476 70.9191C43.2476 70.6238 43.3952 70.3286 43.3952 70.0334C43.3952 69.7381 43.5429 69.2953 43.5429 69C43.5429 68.7048 43.6905 68.2619 43.6905 67.9667C43.6905 67.6714 43.8381 67.2286 43.8381 66.9333H45.1667C45.019 67.8191 44.8714 68.8524 44.7238 69.8857C44.5762 70.9191 44.2809 71.8048 44.1333 72.6905H42.9524C42.8048 72.2476 42.5095 71.6572 42.3619 71.0667C42.2143 70.4762 41.919 69.8857 41.7714 69.4429C41.6238 70.0334 41.4762 70.6238 41.3286 71.2143C41.1809 71.8048 41.0333 72.3953 40.8857 72.8381H39.7048C39.4095 71.9524 39.1143 71.0667 38.819 70.181C38.5238 69.2953 38.2286 68.2619 38.0809 67.3762H39.4095C39.4095 67.6714 39.5571 67.9667 39.7048 68.4095C39.8524 68.7048 39.8524 69.1476 40 69.4429C40.1476 69.7381 40.1476 70.181 40.2952 70.4762C40.4429 70.7714 40.4429 71.0667 40.5905 71.3619C40.7381 71.0667 40.7381 70.7714 40.8857 70.4762C41.0333 70.181 41.0333 69.8857 41.0333 69.5905C41.0333 69.2953 41.1809 69 41.1809 68.7048C41.1809 68.4095 41.3286 68.1143 41.3286 67.9667L42.0667 67.5238Z" fill="#9E005D"/>
<path d="M50.3333 71.0666C50.1857 70.919 50.0381 70.7714 50.0381 70.4762C49.8905 70.3285 49.7429 70.1809 49.5952 69.8857L47.5286 70.4762C47.5286 70.6238 47.5286 70.919 47.5286 71.0666C47.5286 71.2143 47.5286 71.5095 47.5286 71.6571L46.2 71.9524C46.2 71.3619 46.3476 70.7714 46.3476 70.1809C46.3476 69.5904 46.4952 69.1476 46.4952 68.5571C46.4952 68.1143 46.6429 67.6714 46.6429 67.2285C46.6429 66.7857 46.7905 66.3428 46.7905 65.9L47.9714 65.6047C48.2667 65.9 48.5619 66.1952 48.8571 66.6381C49.1524 66.9333 49.4476 67.3762 49.7429 67.6714C50.0381 68.1143 50.3333 68.4095 50.6286 68.8524C50.9238 69.2952 51.3667 69.7381 51.6619 70.3285L50.3333 71.0666ZM47.8238 67.2285C47.8238 67.3762 47.8238 67.3762 47.8238 67.5238C47.8238 67.6714 47.8238 67.819 47.8238 68.1143C47.8238 68.2619 47.8238 68.5571 47.8238 68.7047C47.8238 69 47.8238 69.1476 47.8238 69.4428L49.4476 69C49.3 68.8524 49.1524 68.5571 49.0048 68.4095C48.8571 68.2619 48.7095 68.1143 48.5619 67.819C48.4143 67.6714 48.2667 67.5238 48.2667 67.3762C47.8238 67.3762 47.8238 67.3762 47.8238 67.2285Z" fill="#9E005D"/>
<path d="M54.0238 68.4095C54.1714 68.2619 54.319 68.2619 54.4667 68.1143C54.6143 67.9667 54.6143 67.9667 54.6143 67.8191C54.6143 67.6715 54.6143 67.6715 54.6143 67.5238C54.6143 67.3762 54.6143 67.3762 54.6143 67.2286C54.4667 67.081 54.319 66.9334 54.1714 66.9334C54.0238 66.9334 53.581 66.9334 53.1381 66.9334C52.9905 66.9334 52.6952 66.9334 52.5476 66.9334C52.4 66.9334 52.1048 66.9334 51.9571 66.9334C51.8095 66.9334 51.6619 66.7857 51.3667 66.6381C51.2191 66.4905 51.0714 66.3429 50.9238 66.0476C50.7762 65.7524 50.7762 65.6048 50.7762 65.3095C50.7762 65.0143 50.7762 64.8667 50.9238 64.7191C51.0714 64.5715 51.2191 64.2762 51.3667 64.1286C51.5143 63.981 51.8095 63.8334 52.1048 63.6857C52.4 63.5381 52.6952 63.3905 52.9905 63.3905C53.2857 63.3905 53.581 63.3905 53.7286 63.3905L53.8762 64.4238C53.7286 64.4238 53.581 64.4238 53.2857 64.4238C53.1381 64.4238 52.8429 64.5715 52.6952 64.7191C52.4 64.8667 52.2524 65.0143 52.1048 65.1619C51.9571 65.3095 51.9571 65.4572 52.1048 65.6048C52.1048 65.7524 52.2524 65.7524 52.2524 65.7524C52.4 65.7524 52.4 65.7524 52.5476 65.9C52.6952 65.9 52.6952 65.9 52.8429 65.9C52.9905 65.9 53.1381 65.9 53.2857 65.9C53.581 65.9 53.8762 65.9 54.1714 65.9C54.4667 65.9 54.6143 65.9 54.7619 66.0476C54.9095 66.0476 55.0571 66.1953 55.2048 66.3429C55.3524 66.4905 55.5 66.6381 55.6476 66.9334C55.9429 67.3762 55.9429 67.8191 55.6476 68.2619C55.3524 68.7048 55.0571 69 54.3191 69.4429C54.0238 69.5905 53.8762 69.5905 53.7286 69.7381C53.581 69.7381 53.4333 69.8857 53.1381 69.8857C52.9905 69.8857 52.8429 69.8857 52.6952 69.8857C52.5476 69.8857 52.4 69.8857 52.4 69.8857L52.2524 68.8524C52.4 68.8524 52.6952 68.8524 52.9905 68.8524C53.4333 68.7048 53.7286 68.7048 54.0238 68.4095Z" fill="#9E005D"/>
<path d="M57.8619 60.5857L58.4524 61.4714L57.1238 62.5047L59.781 66.1952L58.7476 66.9333L56.0905 63.2428L54.6143 64.2762L54.0238 63.3905L57.8619 60.5857Z" fill="#9E005D"/>
<path d="M62.1429 64.2762L58.1571 60.2905L60.8143 57.6334L61.5524 58.3715L59.781 60.1429L60.5191 60.881L62.1429 59.2572L62.881 59.9953L61.2571 61.6191L62.1429 62.5048L64.0619 60.5857L64.8 61.3238L62.1429 64.2762Z" fill="#9E005D"/>
<path d="M40 16.5952C27.1571 16.5952 16.6762 27.0762 16.6762 39.919C16.6762 52.7619 27.0095 63.2428 40 63.2428C52.8429 63.2428 63.3238 52.7619 63.3238 39.919C63.3238 27.0762 52.8429 16.5952 40 16.5952ZM50.1857 36.2285L54.319 43.3143C54.4667 43.6095 54.319 43.9047 54.0238 43.9047H48.2667C48.119 43.9047 47.9714 43.9047 47.9714 43.7571L45.3143 39.1809L46.4952 39.6238C46.9381 39.7714 47.2333 39.7714 47.6762 39.7714C48.8571 39.6238 49.7429 38.7381 50.0381 37.5571L50.1857 36.2285ZM37.0476 23.6809H39.2619C41.4762 23.6809 43.6905 24.8619 44.7238 26.9285L46.7905 30.4714L48.119 29.7333C48.8571 29.2905 49.5952 29.8809 49.4476 30.7666L48.119 37.1143C47.9714 37.7047 47.5286 38 46.9381 37.8524L40.7381 35.7857C40 35.4905 39.8524 34.6047 40.5905 34.1619L41.919 33.4238L36.7524 24.419C36.6048 23.9762 36.7524 23.6809 37.0476 23.6809ZM35.1286 25.8952C35.2762 25.6 35.5714 25.6 35.719 25.8952L38.5238 30.9143C38.5238 31.0619 38.5238 31.2095 38.5238 31.2095L35.8667 35.7857L35.5714 34.7524C35.2762 33.5714 34.3905 32.6857 33.2095 32.5381C32.7667 32.5381 32.3238 32.5381 32.0286 32.6857L30.8476 33.1285L35.1286 25.8952ZM26.7143 50.6952L25.5333 48.7762C24.3524 46.8571 24.3524 44.3476 25.5333 42.4285L27.6 38.8857L26.2714 38.1476C25.5333 37.7047 25.681 36.6714 26.419 36.5238L32.619 34.4571C33.0619 34.3095 33.6524 34.6047 33.8 35.1952L35.1286 41.5428C35.2762 42.2809 34.5381 42.8714 33.8 42.5762L32.4714 41.8381L27.3048 50.8428C27.1571 50.8428 26.8619 50.8428 26.7143 50.6952ZM29.6667 51.2857C29.3714 51.2857 29.2238 50.9905 29.3714 50.6952L32.1762 45.6762C32.1762 45.5285 32.3238 45.5285 32.4714 45.5285H37.7857L36.9 46.4143C36.3095 46.8571 36.0143 47.5952 36.0143 48.4809C36.0143 49.219 36.3095 49.9571 36.9 50.5476L37.7857 51.2857H29.6667ZM55.2048 46.119L54.0238 48.0381C52.8429 49.9571 50.7762 51.2857 48.5619 51.2857H44.4286V52.7619C44.4286 53.5 43.5429 53.9428 42.9524 53.5L38.081 49.219C37.6381 48.9238 37.6381 48.1857 38.081 47.8905L42.9524 43.6095C43.5429 43.019 44.4286 43.4619 44.4286 44.3476V45.8238H54.9095C55.2048 45.5285 55.3524 45.8238 55.2048 46.119Z" fill="#004181"/>
</svg>
