<svg width="188" height="130" viewBox="0 0 188 130" fill="none" xmlns="http://www.w3.org/2000/svg">
<path d="M7.74151 90.7097H5.77615V101.342H13.2688V99.6707H7.74151V90.7097Z" fill="#9E005D"/>
<path d="M20.4279 90.7097L15.6686 101.342H17.6946L18.7354 98.8833H24.0201L25.076 101.342H27.1323L22.3579 90.7097H20.4279ZM19.4023 97.3288L21.3828 92.6807L23.3734 97.3288H19.4023Z" fill="#9E005D"/>
<path d="M38.2374 95.81C38.6618 95.5864 38.9952 95.2715 39.2327 94.8702C39.4752 94.4638 39.5964 94.0015 39.5964 93.4732C39.5964 92.6147 39.2579 91.9391 38.586 91.4463C37.914 90.9536 36.949 90.7097 35.7011 90.7097H30.7448V101.342H35.9992C37.3481 101.342 38.3738 101.093 39.0811 100.59C39.7834 100.087 40.137 99.376 40.137 98.4566C40.137 97.7911 39.9653 97.2272 39.6267 96.7802C39.2832 96.3281 38.8184 96.003 38.2374 95.81ZM32.7101 92.2591H35.4889C36.171 92.2591 36.7014 92.381 37.0652 92.6299C37.434 92.8788 37.6159 93.2446 37.6159 93.7323C37.6159 94.2098 37.434 94.5705 37.0652 94.8194C36.6964 95.0683 36.171 95.1902 35.4889 95.1902H32.7101V92.2591ZM35.883 99.7926H32.7101V96.7243H35.883C37.4037 96.7243 38.1616 97.2374 38.1616 98.2585C38.1616 99.2795 37.3987 99.7926 35.883 99.7926Z" fill="#9E005D"/>
<path d="M46.4676 96.7548H51.5755V95.1292H46.4676V92.3658H52.2222V90.7097H44.5073V101.342H52.4344V99.6859H46.4676V96.7548Z" fill="#9E005D"/>
<path d="M58.8559 90.7097H56.8906V101.342H64.3832V99.6707H58.8559V90.7097Z" fill="#9E005D"/>
<path d="M80.3637 95.7897C79.8585 95.5916 79.2168 95.4036 78.4286 95.2207C77.8577 95.0785 77.403 94.9515 77.0696 94.8397C76.7361 94.728 76.4633 94.5756 76.246 94.3825C76.0288 94.1895 75.9227 93.9406 75.9227 93.6358C75.9227 93.1989 76.1096 92.8535 76.4885 92.5893C76.8675 92.3252 77.4434 92.1931 78.2164 92.1931C78.6914 92.1931 79.1764 92.2642 79.6816 92.4065C80.1869 92.5487 80.6668 92.757 81.1316 93.0313L81.7531 91.4972C81.2984 91.1924 80.7578 90.9587 80.1363 90.8012C79.5098 90.6386 78.8783 90.5574 78.2316 90.5574C77.307 90.5574 76.5239 90.6996 75.8823 90.9841C75.2406 91.2686 74.7657 91.6495 74.4474 92.1321C74.1291 92.6147 73.9725 93.1481 73.9725 93.7323C73.9725 94.4283 74.1493 94.987 74.508 95.3934C74.8667 95.8049 75.2911 96.1046 75.7913 96.2977C76.2915 96.4907 76.9433 96.6837 77.7466 96.8768C78.3225 97.019 78.7722 97.146 79.1057 97.2578C79.4391 97.3695 79.7119 97.5219 79.9292 97.72C80.1464 97.9182 80.2525 98.1671 80.2525 98.4719C80.2525 98.8884 80.0605 99.2237 79.6715 99.4726C79.2825 99.7266 78.6964 99.8536 77.9133 99.8536C77.2767 99.8536 76.6452 99.7469 76.0187 99.5285C75.3871 99.3101 74.8566 99.0307 74.4272 98.6852L73.7502 100.219C74.1948 100.605 74.796 100.91 75.5539 101.144C76.3117 101.378 77.0999 101.494 77.9184 101.494C78.8429 101.494 79.6311 101.352 80.2727 101.068C80.9194 100.783 81.3994 100.402 81.7177 99.9298C82.036 99.4523 82.1926 98.924 82.1926 98.3347C82.1926 97.6489 82.0158 97.1003 81.6571 96.6939C81.2984 96.2875 80.8689 95.9878 80.3637 95.7897Z" fill="#9E005D"/>
<path d="M181.617 96.6939C181.259 96.2875 180.829 95.9878 180.324 95.7897C179.819 95.5916 179.177 95.4036 178.389 95.2207C177.818 95.0785 177.363 94.9515 177.03 94.8397C176.696 94.728 176.424 94.5756 176.206 94.3825C175.989 94.1895 175.883 93.9406 175.883 93.6358C175.883 93.1989 176.07 92.8535 176.449 92.5893C176.828 92.3252 177.404 92.1931 178.177 92.1931C178.652 92.1931 179.137 92.2642 179.642 92.4065C180.147 92.5487 180.627 92.757 181.092 93.0313L181.713 91.4972C181.259 91.1924 180.718 90.9587 180.097 90.8012C179.47 90.6386 178.839 90.5574 178.192 90.5574C177.267 90.5574 176.484 90.6996 175.843 90.9841C175.201 91.2686 174.726 91.6495 174.408 92.1321C174.089 92.6147 173.933 93.1481 173.933 93.7323C173.933 94.4283 174.11 94.987 174.468 95.3934C174.827 95.8049 175.251 96.1046 175.752 96.2977C176.252 96.4907 176.904 96.6837 177.707 96.8768C178.283 97.019 178.733 97.146 179.066 97.2578C179.399 97.3695 179.672 97.5219 179.89 97.72C180.107 97.9182 180.213 98.1671 180.213 98.4719C180.213 98.8884 180.021 99.2237 179.632 99.4726C179.243 99.7266 178.657 99.8536 177.874 99.8536C177.237 99.8536 176.606 99.7469 175.979 99.5285C175.347 99.3101 174.817 99.0307 174.388 98.6852L173.711 100.219C174.155 100.605 174.756 100.91 175.514 101.144C176.272 101.378 177.06 101.494 177.879 101.494C178.803 101.494 179.591 101.352 180.233 101.068C180.88 100.783 181.36 100.402 181.678 99.9298C181.996 99.4523 182.153 98.924 182.153 98.3347C182.153 97.6438 181.976 97.1003 181.617 96.6939Z" fill="#9E005D"/>
<path d="M94.2576 91.2635C93.3936 90.791 92.4185 90.5574 91.3424 90.5574C90.2662 90.5574 89.2911 90.7961 88.4272 91.2635C87.5632 91.7359 86.8812 92.3861 86.3861 93.2243C85.8909 94.0625 85.6484 94.9921 85.6484 96.0284C85.6484 97.0597 85.896 97.9944 86.3861 98.8325C86.8812 99.6656 87.5582 100.321 88.4272 100.793C89.2911 101.266 90.2662 101.499 91.3424 101.499C92.4185 101.499 93.3936 101.266 94.2576 100.793C95.1215 100.321 95.8036 99.6707 96.2987 98.8427C96.7938 98.0147 97.0414 97.0749 97.0414 96.0335C97.0414 94.9921 96.7938 94.0524 96.2987 93.2243C95.8036 92.3861 95.1266 91.7359 94.2576 91.2635ZM94.5759 97.9436C94.2525 98.5176 93.8079 98.9595 93.2471 99.2796C92.6813 99.5996 92.0497 99.7571 91.3424 99.7571C90.6351 99.7571 90.0035 99.5996 89.4377 99.2796C88.8718 98.9595 88.4322 98.5176 88.1089 97.9436C87.7855 97.3695 87.6239 96.7295 87.6239 96.0234C87.6239 95.3172 87.7855 94.6721 88.1089 94.1031C88.4322 93.5291 88.8718 93.0872 89.4377 92.7671C90.0035 92.4471 90.6351 92.2896 91.3424 92.2896C92.0447 92.2896 92.6813 92.4471 93.2471 92.7671C93.813 93.0872 94.2525 93.5291 94.5759 94.1031C94.8992 94.6772 95.0609 95.3172 95.0609 96.0234C95.0609 96.7295 94.8992 97.3746 94.5759 97.9436Z" fill="#9E005D"/>
<path d="M103.352 90.7097H101.391V101.342H108.884V99.6707H103.352V90.7097Z" fill="#9E005D"/>
<path d="M119.787 96.6329C119.787 98.7207 118.893 99.7621 117.114 99.7621C115.321 99.7621 114.426 98.7207 114.426 96.6329V90.7097H112.461V96.7091C112.461 98.2483 112.87 99.4319 113.684 100.255C114.497 101.078 115.639 101.494 117.099 101.494C118.559 101.494 119.696 101.083 120.504 100.255C121.318 99.4268 121.722 98.2483 121.722 96.7091V90.7097H119.787V96.6329Z" fill="#9E005D"/>
<path d="M125.178 92.381H128.684V101.342H130.649V92.381H134.151V90.7097H125.178V92.381Z" fill="#9E005D"/>
<path d="M139.865 90.7097H137.9V101.342H139.865V90.7097Z" fill="#9E005D"/>
<path d="M152.839 91.2635C151.975 90.791 151 90.5574 149.924 90.5574C148.848 90.5574 147.873 90.7961 147.009 91.2635C146.145 91.7359 145.463 92.3861 144.968 93.2243C144.473 94.0625 144.23 94.9921 144.23 96.0284C144.23 97.0597 144.478 97.9944 144.968 98.8325C145.463 99.6656 146.14 100.321 147.009 100.793C147.873 101.266 148.848 101.499 149.924 101.499C151 101.499 151.975 101.266 152.839 100.793C153.703 100.321 154.385 99.6707 154.88 98.8427C155.376 98.0147 155.623 97.0749 155.623 96.0335C155.623 94.9921 155.376 94.0524 154.88 93.2243C154.38 92.3861 153.703 91.7359 152.839 91.2635ZM153.153 97.9436C152.829 98.5176 152.385 98.9595 151.824 99.2796C151.258 99.5996 150.626 99.7571 149.919 99.7571C149.217 99.7571 148.58 99.5996 148.014 99.2796C147.448 98.9595 147.009 98.5176 146.686 97.9436C146.362 97.3695 146.201 96.7295 146.201 96.0234C146.201 95.3172 146.362 94.6721 146.686 94.1031C147.009 93.5291 147.448 93.0872 148.014 92.7671C148.58 92.4471 149.212 92.2896 149.919 92.2896C150.626 92.2896 151.258 92.4471 151.824 92.7671C152.39 93.0872 152.829 93.5291 153.153 94.1031C153.476 94.6772 153.638 95.3172 153.638 96.0234C153.638 96.7295 153.476 97.3746 153.153 97.9436Z" fill="#9E005D"/>
<path d="M167.415 97.908L161.58 90.7097H159.968V101.342H161.913V94.1437L167.744 101.342H169.36V90.7097H167.415V97.908Z" fill="#9E005D"/>
<path d="M37.2875 29.7507H48.145V62.0945C48.145 74.1085 38.3687 83.9381 26.425 83.9381C14.4763 83.9381 4.70001 74.1085 4.70001 62.0945V29.7507H15.5575V62.0945C15.5575 68.0837 20.4683 73.0214 26.425 73.0214C32.3817 73.0214 37.2926 68.0837 37.2926 62.0945V29.7507H37.2875Z" fill="#004282"/>
<path d="M104.347 29.7507V68.6171V82.7748L57.5474 43.9084V29.7507L93.4846 59.6003V29.7507H104.347Z" fill="#004282"/>
<path d="M57.5474 57.0552V82.7748H68.4048V66.072L57.5474 57.0552Z" fill="#004282"/>
<path d="M122.505 29.7507H111.643V82.7748H122.505V29.7507Z" fill="#004282"/>
<path fill-rule="evenodd" clip-rule="evenodd" d="M151.111 59.3311H170.472C170.795 59.3311 171.058 59.5952 171.058 59.9203V65.94C171.058 66.2651 170.795 66.5293 170.472 66.5293H151.111C150.788 66.5293 150.525 66.2651 150.525 65.94V59.9203C150.525 59.5952 150.788 59.3311 151.111 59.3311Z" fill="#9E005D"/>
<path fill-rule="evenodd" clip-rule="evenodd" d="M151.849 64.8071H169.295C169.507 64.8071 169.679 64.9798 169.679 65.1932C169.679 65.4066 169.507 65.5793 169.295 65.5793H151.849C151.637 65.5793 151.465 65.4066 151.465 65.1932C151.47 64.9798 151.642 64.8071 151.849 64.8071Z" fill="#004282"/>
<path d="M165.475 63.7557C165.827 63.7557 166.112 63.4692 166.112 63.1157C166.112 62.7622 165.827 62.4756 165.475 62.4756C165.124 62.4756 164.839 62.7622 164.839 63.1157C164.839 63.4692 165.124 63.7557 165.475 63.7557Z" fill="white"/>
<path d="M167.259 63.7557C167.61 63.7557 167.895 63.4692 167.895 63.1157C167.895 62.7622 167.61 62.4756 167.259 62.4756C166.907 62.4756 166.622 62.7622 166.622 63.1157C166.622 63.4692 166.907 63.7557 167.259 63.7557Z" fill="white"/>
<path d="M169.042 63.7557C169.394 63.7557 169.679 63.4692 169.679 63.1157C169.679 62.7622 169.394 62.4756 169.042 62.4756C168.691 62.4756 168.406 62.7622 168.406 63.1157C168.406 63.4692 168.691 63.7557 169.042 63.7557Z" fill="white"/>
<path fill-rule="evenodd" clip-rule="evenodd" d="M142.179 65.9806C140.214 63.2273 139.052 59.8543 139.052 56.2069C139.052 46.9513 146.509 39.4533 155.714 39.4533C164.919 39.4533 172.377 46.9513 172.377 56.2069C172.377 59.4834 171.442 62.5415 169.825 65.1272C170.229 65.4777 170.583 65.879 170.856 66.3007C171.24 66.9001 171.583 67.5452 171.917 68.1701C172.372 69.0184 172.821 69.8668 173.281 70.71C174.089 72.1883 174.928 73.6564 175.838 75.0788C180.425 70.136 183.229 63.5016 183.229 56.2069C183.229 40.9265 170.906 28.5366 155.709 28.5366C140.512 28.5366 128.189 40.9265 128.189 56.2069C128.189 61.805 129.841 67.0169 132.686 71.3755C137.602 78.909 146.074 83.8772 155.704 83.8772V72.9604C150.141 72.9604 145.2 70.2071 142.179 65.9806Z" fill="#004282"/>
<path fill-rule="evenodd" clip-rule="evenodd" d="M153.006 64.8072H166.183C167.582 64.7259 169.194 65.7114 169.941 66.8899C171.866 69.9125 176.641 81.2001 183.184 83.8975H171.649C168.446 83.8975 166.395 82.1348 164.48 78.9801C161.408 73.9205 157.306 65.0866 153.006 64.8072Z" fill="#BCBEC0"/>
<path fill-rule="evenodd" clip-rule="evenodd" d="M170.583 81.0627C170.76 81.0627 170.952 81.0627 171.129 81.0627C170.401 80.3719 169.755 79.6861 169.214 78.98C168.694 78.2993 168.244 77.5932 167.804 76.8972C167.628 76.8972 167.441 76.8972 167.264 76.8972C167.698 77.5881 168.143 78.2993 168.658 78.98C169.194 79.6912 169.846 80.3719 170.583 81.0627ZM172.043 81.0627C171.326 80.3719 170.684 79.6861 170.139 78.98C169.613 78.2993 169.153 77.5932 168.709 76.8972C168.8 76.8972 168.896 76.8972 168.987 76.8972C169.436 77.5881 169.896 78.2942 170.421 78.98C170.967 79.6861 171.609 80.3668 172.321 81.0627C172.23 81.0627 172.134 81.0627 172.043 81.0627ZM172.644 81.0627C171.932 80.3719 171.296 79.6861 170.745 78.98C170.214 78.2993 169.75 77.5932 169.3 76.8972C169.563 76.8972 169.83 76.8972 170.093 76.8972C170.553 77.5881 171.028 78.2942 171.558 78.98C172.109 79.6861 172.746 80.3668 173.448 81.0627C173.18 81.0627 172.912 81.0627 172.644 81.0627ZM173.827 81.0627C173.13 80.3719 172.493 79.6861 171.942 78.98C171.407 78.2942 170.932 77.5932 170.467 76.8972C170.613 76.8972 170.765 76.8972 170.912 76.8972C171.376 77.5881 171.861 78.2942 172.397 78.98C172.953 79.6861 173.589 80.3668 174.276 81.0627C174.125 81.0627 173.978 81.0627 173.827 81.0627ZM174.691 81.0627C174.842 81.0627 175.004 81.0627 175.15 81.0627C174.473 80.3719 173.837 79.6861 173.281 78.98C172.74 78.2942 172.245 77.5932 171.775 76.8972C171.629 76.8972 171.467 76.8972 171.321 76.8972C171.791 77.5881 172.276 78.2942 172.816 78.98C173.372 79.6861 174.009 80.3719 174.691 81.0627ZM175.504 81.0627C175.777 81.0627 176.04 81.0627 176.318 81.0627C175.651 80.3719 175.024 79.6861 174.458 78.98C173.908 78.2942 173.407 77.5932 172.922 76.8972C172.655 76.8972 172.392 76.8972 172.124 76.8972C172.599 77.5881 173.094 78.2942 173.64 78.98C174.196 79.6861 174.827 80.3719 175.504 81.0627ZM176.57 81.0627C176.661 81.0627 176.752 81.0627 176.843 81.0627C176.181 80.3668 175.555 79.6861 174.989 78.98C174.438 78.2942 173.928 77.5932 173.438 76.8972C173.347 76.8972 173.261 76.8972 173.17 76.8972C173.655 77.5932 174.16 78.2942 174.711 78.98C175.282 79.6861 175.903 80.3719 176.57 81.0627ZM177.106 81.0627C177.318 81.0627 177.535 81.0627 177.747 81.0627C177.096 80.3668 176.474 79.681 175.903 78.98C175.347 78.2942 174.832 77.5932 174.332 76.8972C174.12 76.8972 173.908 76.8972 173.695 76.8972C174.19 77.5932 174.696 78.2942 175.251 78.98C175.827 79.6861 176.449 80.3719 177.106 81.0627ZM168.729 81.0627C167.971 80.3668 167.314 79.6912 166.789 78.98C166.284 78.2993 165.859 77.5932 165.44 76.8972C165.556 76.8972 165.667 76.8972 165.783 76.8972C166.203 77.5932 166.632 78.2993 167.142 78.98C167.673 79.6861 168.325 80.3668 169.083 81.0627C168.961 81.0627 168.845 81.0627 168.729 81.0627ZM171.467 81.0627C170.745 80.3719 170.098 79.6861 169.558 78.98C169.037 78.2993 168.582 77.5932 168.143 76.8972C168.234 76.8972 168.33 76.8972 168.421 76.8972C168.865 77.5881 169.32 78.2942 169.845 78.98C170.386 79.6861 171.033 80.3668 171.75 81.0627C171.654 81.0627 171.558 81.0627 171.467 81.0627ZM168.128 81.0627C167.36 80.3668 166.703 79.6912 166.178 78.98C165.677 78.2993 165.253 77.5932 164.844 76.8972C164.955 76.8972 165.071 76.8972 165.187 76.8972C165.602 77.5932 166.026 78.2993 166.531 78.98C167.057 79.6912 167.713 80.3668 168.476 81.0627C168.36 81.0627 168.244 81.0627 168.128 81.0627ZM169.446 81.0627C168.699 80.3719 168.042 79.6912 167.511 78.98C167.001 78.2993 166.567 77.5932 166.142 76.8972C166.415 76.8972 166.683 76.8972 166.951 76.8972C167.38 77.5881 167.825 78.2993 168.335 78.98C168.87 79.6861 169.522 80.3668 170.26 81.0627C169.997 81.0627 169.719 81.0627 169.446 81.0627Z" fill="#9E005D"/>
<path fill-rule="evenodd" clip-rule="evenodd" d="M162.227 71.6904C163.646 71.6904 165.066 71.6904 166.486 71.6904C167.905 71.6904 169.325 71.6904 170.745 71.6904C170.912 71.6904 171.114 71.8073 171.2 71.9444C171.296 72.107 171.391 72.2645 171.487 72.427C171.568 72.5642 171.503 72.6759 171.336 72.6759C169.916 72.6759 168.497 72.6759 167.082 72.6759C165.667 72.6759 164.248 72.6759 162.828 72.6759C162.661 72.6759 162.464 72.5642 162.383 72.427C162.287 72.2645 162.186 72.107 162.085 71.9444C161.999 71.8073 162.06 71.6904 162.227 71.6904Z" fill="#9E005D"/>
<path fill-rule="evenodd" clip-rule="evenodd" d="M163.166 73.5344C164.637 73.5344 166.112 73.5344 167.582 73.5344C169.052 73.5344 170.528 73.5344 171.998 73.5344C172.079 73.5344 172.185 73.5903 172.225 73.6614C172.276 73.7427 172.326 73.824 172.372 73.9002C172.412 73.9713 172.382 74.0272 172.296 74.0272C170.816 74.0272 169.34 74.0272 167.86 74.0272C166.385 74.0272 164.904 74.0272 163.429 74.0272C163.343 74.0272 163.247 73.9713 163.212 73.9002C163.166 73.8189 163.126 73.7376 163.08 73.6614C163.045 73.5954 163.08 73.5344 163.166 73.5344Z" fill="#9E005D"/>
<path fill-rule="evenodd" clip-rule="evenodd" d="M163.682 74.4946C165.167 74.4946 166.652 74.4946 168.133 74.4946C169.618 74.4946 171.104 74.4946 172.589 74.4946C172.675 74.4946 172.776 74.5505 172.821 74.6216C172.872 74.7029 172.922 74.7842 172.973 74.8604C173.018 74.9315 172.983 74.9874 172.902 74.9874C171.412 74.9874 169.916 74.9874 168.426 74.9874C166.935 74.9874 165.44 74.9874 163.949 74.9874C163.869 74.9874 163.768 74.9315 163.732 74.8604C163.692 74.7791 163.646 74.6978 163.606 74.6216C163.565 74.5505 163.601 74.4946 163.682 74.4946Z" fill="#9E005D"/>
<path fill-rule="evenodd" clip-rule="evenodd" d="M164.237 75.5308C165.283 75.5308 166.329 75.5308 167.375 75.5308C168.421 75.5308 169.467 75.5308 170.517 75.5308C170.603 75.5308 170.704 75.5866 170.75 75.6578C170.8 75.739 170.851 75.8203 170.901 75.8965C170.947 75.9676 170.912 76.0235 170.826 76.0235C169.77 76.0235 168.719 76.0235 167.663 76.0235C166.607 76.0235 165.556 76.0235 164.505 76.0235C164.419 76.0235 164.323 75.9676 164.283 75.8965C164.237 75.8152 164.197 75.734 164.152 75.6578C164.116 75.5866 164.152 75.5308 164.237 75.5308Z" fill="#9E005D"/>
</svg>
