<svg width="32" height="32" viewBox="0 0 32 32" fill="none" xmlns="http://www.w3.org/2000/svg">
<path d="M21.058 4H6.94196C4.21259 4 2 6.18463 2 8.87951V22.8172C2 25.5121 4.21259 27.6968 6.94196 27.6968H21.058C23.7874 27.6968 26 25.5121 26 22.8172V8.87951C26 6.18463 23.7874 4 21.058 4Z" fill="#231F20"/>
<path d="M7.06055 20.1142C8.55517 20.2004 9.85892 19.8497 11.1361 18.9362C9.84921 18.7189 8.95438 18.1401 8.46782 16.934C8.84115 16.8803 9.17437 16.9781 9.56259 16.828C8.29507 16.2798 7.47464 15.4551 7.441 14.0304C7.84021 14.0649 8.14431 14.3218 8.62376 14.2879C7.45588 13.1616 7.10196 11.9382 7.83568 10.4472C9.05273 11.8296 10.4781 12.763 12.2141 13.2051C12.3085 13.2293 12.403 13.2549 12.4975 13.276C12.9472 13.3782 13.4751 13.5967 13.7475 13.5634C14.216 13.5053 13.7475 12.9751 13.8666 12.2851C14.238 10.1379 16.63 9.16371 18.4016 10.421C18.9192 10.7883 19.33 10.7819 19.8354 10.5602C20.1026 10.4433 20.3724 10.3315 20.6881 10.1967C20.615 10.8126 20.1401 11.1467 19.759 11.6047C20.1938 11.7025 20.5438 11.5785 20.9405 11.454C20.8027 11.8961 20.4714 12.1458 20.166 12.3886C19.8515 12.6384 19.726 12.899 19.7131 13.3085C19.5177 19.4977 12.3959 24.2859 7.52511 20.4751C7.05279 20.1059 7.51282 20.4758 7.06119 20.1142H7.06055Z" fill="white"/>
</svg>
