<svg width="32" height="32" viewBox="0 0 32 32" fill="none" xmlns="http://www.w3.org/2000/svg">
<path d="M23.0581 4H8.94195C6.21258 4 4 6.18463 4 8.87951V22.8172C4 25.5121 6.21258 27.6968 8.94195 27.6968H23.0581C25.7874 27.6968 28 25.5121 28 22.8172V8.87951C28 6.18463 25.7874 4 23.0581 4Z" fill="#231F20"/>
<path d="M21.9703 10.4465H10.0288C8.43364 10.4465 7.1405 11.7233 7.1405 13.2983V18.3989C7.1405 19.9739 8.43364 21.2507 10.0288 21.2507H21.9703C23.5654 21.2507 24.8586 19.9739 24.8586 18.3989V13.2983C24.8586 11.7233 23.5654 10.4465 21.9703 10.4465Z" fill="#FFF5F6"/>
<path d="M18.7779 15.8484L14.1788 13.2266V18.4696L18.7779 15.8484Z" fill="#231F20"/>
</svg>
